<svg xmlns="http://www.w3.org/2000/svg" width="436" height="354" fill="none" viewBox="0 0 436 354">
  <rect width="430" height="944" x="3" fill="color(display-p3 .0941 .1412 .1451)" rx="72"/>
  <rect width="428" height="942" x="4" y="1" fill="color(display-p3 .2 .302 .3137)" rx="71"/>
  <rect width="414" height="928" x="11" y="8" fill="#000" rx="64"/>
  <rect width="412" height="926" x="12" y="9" fill="color(display-p3 .1294 .1294 .1294)" rx="63"/>
  <rect width="410" height="924" x="13" y="10" fill="#000" rx="62"/>
  <g clip-path="url(#a)">
    <g clip-path="url(#b)">
      <path fill="color(display-p3 .0941 .1412 .1451)" d="M19 16h398v968H19z"/>
      <g filter="url(#c)">
        <mask id="d" fill="#fff">
          <path d="M19 16h398v98H19V16Z"/>
        </mask>
        <path fill="color(display-p3 .0941 .1412 .1451)" d="M19 16h398v98H19V16Z"/>
        <path fill="#fff" fill-opacity=".15" d="M417 113.667H19v.666h398v-.666Z" mask="url(#d)"/>
        <path fill="#fff" d="M76.415 39.063c.642 0 1.25.119 1.826.357a4.071 4.071 0 0 1 1.528 1.095c.448.493.8 1.127 1.054 1.901.254.77.382 1.696.382 2.781v.017c0 1.344-.194 2.495-.581 3.453-.388.957-.944 1.693-1.669 2.208-.72.509-1.58.764-2.581.764-.736 0-1.4-.133-1.993-.399a4.077 4.077 0 0 1-1.46-1.112 3.887 3.887 0 0 1-.773-1.627l-.016-.092h2.1l.033.084c.105.276.255.52.448.73.2.21.438.373.714.49.282.11.598.166.947.166.63 0 1.145-.186 1.544-.556.403-.377.705-.878.904-1.503.205-.63.321-1.328.349-2.092.005-.083.008-.163.008-.24v-.241l-.373-2c0-.454-.105-.867-.316-1.237a2.372 2.372 0 0 0-.855-.88 2.266 2.266 0 0 0-1.203-.324 2.31 2.31 0 0 0-1.187.315 2.39 2.39 0 0 0-.864.864 2.31 2.31 0 0 0-.323 1.212v.016c0 .465.102.877.307 1.237.205.354.484.634.838.838.354.205.758.308 1.212.308.454 0 .86-.1 1.22-.3.36-.199.645-.475.855-.83.21-.354.316-.755.316-1.203v-.017h.498v2.208h-.29a2.883 2.883 0 0 1-.64.88 3.2 3.2 0 0 1-1.046.656c-.41.166-.89.249-1.444.249-.764 0-1.439-.171-2.026-.515a3.73 3.73 0 0 1-1.386-1.41c-.332-.598-.498-1.273-.498-2.026v-.017c0-.813.188-1.535.565-2.166a4.02 4.02 0 0 1 1.577-1.494c.675-.366 1.441-.548 2.299-.548Zm8.558 10.666a1.3 1.3 0 0 1-.946-.373 1.28 1.28 0 0 1-.374-.93c0-.37.125-.68.374-.93.254-.254.57-.382.946-.382.382 0 .697.128.946.382.25.25.374.56.374.93 0 .365-.125.675-.374.93-.249.249-.564.373-.946.373Zm0-6.159a1.3 1.3 0 0 1-.946-.373 1.28 1.28 0 0 1-.374-.93c0-.37.125-.68.374-.93.254-.254.57-.382.946-.382.382 0 .697.128.946.382.25.25.374.56.374.93 0 .365-.125.675-.374.93-.249.249-.564.373-.946.373Zm9.58 7.77v-2.3h-5.861v-1.75c.315-.537.63-1.077.946-1.619a155.643 155.643 0 0 1 1.96-3.22c.331-.532.66-1.055.987-1.57.332-.52.664-1.026.996-1.518h3.013v7.91h1.619v1.768h-1.619v2.3h-2.042Zm-3.869-4.018h3.901v-6.25h-.124l-.755 1.162a142.8 142.8 0 0 0-.772 1.22c-.26.415-.518.833-.772 1.253-.255.415-.507.833-.756 1.254-.249.415-.49.827-.722 1.236v.125Zm12.484 4.018v-9.87h-.149l-2.98 2.1v-2.009l3.129-2.2h2.134V51.34h-2.134Z"/>
        <rect width="24" height="12" x="355.681" y="39.5" stroke="#fff" opacity=".35" rx="3.8"/>
        <path fill="#fff" d="M381.181 43.781v4.076a2.213 2.213 0 0 0 1.328-2.038c0-.89-.524-1.693-1.328-2.038Z" opacity=".4"/>
        <rect width="21" height="9" x="357.181" y="41" fill="#fff" rx="2.5"/>
        <path fill="#fff" fill-rule="evenodd" d="M339.451 42.104c2.487 0 4.879.922 6.682 2.576a.354.354 0 0 0 .486-.004l1.298-1.263a.347.347 0 0 0 .105-.248.346.346 0 0 0-.108-.246c-4.731-4.375-12.195-4.375-16.926 0a.342.342 0 0 0-.003.494l1.297 1.263c.134.13.351.132.487.004a9.89 9.89 0 0 1 6.682-2.576Zm-.003 4.22c1.357 0 2.666.512 3.672 1.436a.342.342 0 0 0 .483-.006l1.288-1.32a.37.37 0 0 0-.006-.519 7.899 7.899 0 0 0-10.872 0 .368.368 0 0 0-.005.52l1.287 1.319a.342.342 0 0 0 .483.006 5.428 5.428 0 0 1 3.67-1.436Zm2.524 2.794a.407.407 0 0 1-.102.28l-2.177 2.455a.323.323 0 0 1-.241.113.324.324 0 0 1-.242-.113l-2.177-2.454a.408.408 0 0 1-.102-.281.403.403 0 0 1 .113-.276c1.39-1.314 3.426-1.314 4.816 0a.4.4 0 0 1 .112.276Zm-18.591-8.436c0-.633-.478-1.146-1.067-1.146h-1.067c-.589 0-1.066.513-1.066 1.146v9.934c0 .633.477 1.146 1.066 1.146h1.067c.589 0 1.067-.513 1.067-1.146v-9.934Zm-7.434 1.3h1.066c.589 0 1.067.525 1.067 1.173v7.434c0 .648-.478 1.173-1.067 1.173h-1.066c-.59 0-1.067-.525-1.067-1.173v-7.434c0-.648.477-1.174 1.067-1.174Zm-4.332 2.648h-1.067c-.589 0-1.067.532-1.067 1.189v4.755c0 .656.478 1.188 1.067 1.188h1.067c.589 0 1.066-.532 1.066-1.188v-4.755c0-.657-.477-1.189-1.066-1.189Zm-5.301 2.445h-1.067c-.589 0-1.066.525-1.066 1.172v2.343c0 .648.477 1.172 1.066 1.172h1.067c.589 0 1.067-.524 1.067-1.172v-2.343c0-.647-.478-1.172-1.067-1.172Z" clip-rule="evenodd"/>
        <path fill="#000" d="M155 46c0-8.837 7.163-16 16-16h94c8.837 0 16 7.163 16 16s-7.163 16-16 16h-94c-8.837 0-16-7.163-16-16Z"/>
        <rect width="12" height="12" x="255" y="40" fill="url(#e)" rx="6"/>
        <rect width="5" height="5" x="258.5" y="43.5" fill="color(display-p3 0 .1568 .2833)" stroke="#000" rx="2.5"/>
        <path fill="color(display-p3 .9451 1 .7686)" d="M28.61 92.007a1.38 1.38 0 0 1 .117-.531c.072-.16.182-.316.332-.465l8.317-8.052c.238-.238.531-.357.88-.357.232 0 .443.055.63.166.194.11.347.26.457.448a1.242 1.242 0 0 1-.216 1.536l-7.52 7.247 7.52 7.254c.26.266.39.568.39.905 0 .238-.058.451-.174.639a1.22 1.22 0 0 1-.456.449 1.178 1.178 0 0 1-.631.174c-.349 0-.642-.122-.88-.365l-8.317-8.052a1.513 1.513 0 0 1-.34-.465 1.32 1.32 0 0 1-.109-.531Z"/>
        <path fill="#fff" d="M146.061 98.15a3.58 3.58 0 0 1-1.17-.183 2.958 2.958 0 0 1-.938-.54 2.868 2.868 0 0 1-.648-.846h-.141V98h-2.067V85.416h2.067v4.956h.141a2.68 2.68 0 0 1 .648-.847c.271-.238.586-.42.946-.548.36-.133.747-.2 1.162-.2.764 0 1.422.192 1.976.574.559.376.99.915 1.295 1.618.304.698.456 1.528.456 2.49v.017c0 .952-.155 1.78-.465 2.482-.304.703-.736 1.245-1.295 1.627-.553.376-1.209.564-1.967.564Zm-.647-1.744c.47 0 .874-.116 1.211-.348.338-.238.598-.576.781-1.013.182-.437.274-.96.274-1.569v-.016c0-.61-.092-1.132-.274-1.57-.183-.442-.443-.78-.781-1.012-.337-.238-.741-.357-1.211-.357-.465 0-.869.119-1.212.357-.343.238-.609.576-.797 1.013-.183.437-.274.96-.274 1.569v.016c0 .603.091 1.126.274 1.569.188.437.451.775.788 1.013.343.232.75.348 1.221.348Zm10.326 1.777c-.902 0-1.677-.191-2.324-.573a3.814 3.814 0 0 1-1.486-1.627c-.349-.703-.523-1.536-.523-2.499v-.008c0-.952.171-1.782.514-2.49a3.884 3.884 0 0 1 1.478-1.644c.636-.393 1.383-.59 2.241-.59.863 0 1.605.192 2.225.574a3.747 3.747 0 0 1 1.444 1.585c.338.68.506 1.478.506 2.39v.681h-7.371v-1.386h6.359l-.98 1.295v-.822c0-.603-.091-1.104-.274-1.502-.182-.398-.437-.697-.763-.897a2.083 2.083 0 0 0-1.121-.298 2.08 2.08 0 0 0-1.137.315c-.327.205-.587.51-.78.913-.189.399-.283.888-.283 1.47v.83c0 .558.094 1.037.283 1.435.188.393.453.698.796.914.349.21.761.315 1.237.315.371 0 .689-.053.955-.158.271-.11.49-.24.656-.39.166-.155.282-.302.348-.44l.025-.058h1.959l-.016.075a3.015 3.015 0 0 1-.399.896 3.388 3.388 0 0 1-.772.839 3.958 3.958 0 0 1-1.179.622c-.464.155-1.004.233-1.618.233Zm6.142-.183v-9.073h2.067v1.395h.141c.216-.493.543-.877.98-1.154.437-.277.982-.415 1.635-.415 1.013 0 1.788.293 2.324.88.537.586.805 1.42.805 2.498V98h-2.066v-5.387c0-.709-.15-1.24-.449-1.594-.293-.354-.752-.531-1.378-.531-.409 0-.763.091-1.062.274a1.79 1.79 0 0 0-.689.772c-.161.332-.241.725-.241 1.178V98h-2.067Zm13.962.041c-1.04 0-1.79-.19-2.249-.572-.46-.382-.689-1.007-.689-1.876v-5.064h-1.411v-1.602h1.411v-2.224h2.1v2.224h1.909v1.602h-1.909v4.574c0 .448.094.778.282.988.194.205.504.307.93.307.149 0 .271-.003.365-.008l.332-.034v1.594c-.144.028-.31.05-.498.067a6.347 6.347 0 0 1-.573.025Zm6.973.142c-.902 0-1.68-.189-2.333-.565a3.836 3.836 0 0 1-1.51-1.627c-.349-.703-.523-1.544-.523-2.523v-.017c0-.968.177-1.804.531-2.507a3.792 3.792 0 0 1 1.502-1.627c.653-.376 1.431-.564 2.333-.564.902 0 1.677.188 2.324.564a3.785 3.785 0 0 1 1.511 1.619c.354.703.531 1.541.531 2.515v.017c0 .98-.177 1.82-.531 2.523a3.79 3.79 0 0 1-1.503 1.627c-.647.377-1.425.565-2.332.565Zm0-1.677c.476 0 .88-.12 1.212-.357.337-.244.595-.59.772-1.038.177-.453.265-.999.265-1.635v-.016c0-.642-.088-1.188-.265-1.636-.177-.454-.435-.8-.772-1.037-.332-.244-.736-.366-1.212-.366s-.883.122-1.22.366c-.338.238-.595.583-.772 1.037-.177.448-.266.993-.266 1.636v.016c0 .636.089 1.182.266 1.635.177.454.431.8.763 1.038.338.238.747.357 1.229.357Zm6.483-2.4v-1.875h5.545v1.876H189.3Zm12.011 7.082c-.797 0-1.486-.106-2.067-.316-.575-.21-1.029-.509-1.361-.896a2.535 2.535 0 0 1-.606-1.337l.008-.025h2.059l.016.025c.067.288.269.523.606.706.343.188.803.282 1.378.282.709 0 1.256-.158 1.644-.473.393-.316.589-.764.589-1.345v-1.743h-.141a2.676 2.676 0 0 1-.672.83 2.81 2.81 0 0 1-.938.515c-.349.11-.734.166-1.154.166-.764 0-1.425-.183-1.984-.548a3.638 3.638 0 0 1-1.295-1.536c-.299-.653-.448-1.408-.448-2.266v-.017c0-.874.152-1.643.456-2.307.305-.664.736-1.184 1.295-1.56.565-.377 1.237-.565 2.017-.565.421 0 .806.066 1.154.2a2.922 2.922 0 0 1 1.594 1.444h.108v-1.495h2.067v8.849c0 .697-.177 1.3-.532 1.81-.348.514-.846.91-1.494 1.186-.647.277-1.414.416-2.299.416Zm0-5.255c.476 0 .885-.113 1.229-.34a2.23 2.23 0 0 0 .788-.955c.188-.404.282-.874.282-1.41v-.018c0-.536-.094-1.007-.282-1.41a2.168 2.168 0 0 0-.788-.955c-.344-.233-.753-.349-1.229-.349-.481 0-.891.116-1.228.349a2.155 2.155 0 0 0-.764.954c-.172.404-.257.875-.257 1.411v.017c0 .531.085 1.002.257 1.411.177.404.431.722.764.955.337.227.747.34 1.228.34ZM208.167 98v-9.073h2.067v1.395h.141c.155-.487.432-.866.831-1.137.404-.272.904-.407 1.502-.407.155 0 .307.01.457.033.154.017.282.039.381.066v1.852a3.852 3.852 0 0 0-.506-.084 3.96 3.96 0 0 0-.523-.033c-.459 0-.86.086-1.204.258a1.87 1.87 0 0 0-.796.738c-.189.316-.283.69-.283 1.121V98h-2.067Zm7.081 0v-9.073h2.059V98h-2.059Zm1.038-10.592c-.338 0-.628-.119-.872-.357a1.155 1.155 0 0 1-.365-.855c0-.343.122-.63.365-.863.244-.238.534-.357.872-.357.337 0 .625.12.863.357.243.232.365.52.365.863 0 .332-.122.617-.365.855a1.177 1.177 0 0 1-.863.357Zm6.839 10.741c-.752 0-1.408-.188-1.967-.564-.559-.382-.99-.924-1.295-1.627-.304-.703-.456-1.53-.456-2.482v-.016c0-.963.149-1.793.448-2.49.304-.704.733-1.243 1.287-1.62.559-.381 1.22-.572 1.983-.572.416 0 .803.066 1.163.2.359.126.675.309.946.547.277.238.492.52.647.847h.15v-4.956h2.058V98h-2.058v-1.42h-.15a2.808 2.808 0 0 1-.655.847 2.876 2.876 0 0 1-.93.54 3.581 3.581 0 0 1-1.171.182Zm.648-1.743c.47 0 .874-.116 1.212-.348.343-.238.606-.576.788-1.013.189-.443.283-.966.283-1.569v-.016c0-.61-.094-1.132-.283-1.57-.182-.436-.445-.774-.788-1.012-.338-.238-.742-.357-1.212-.357-.465 0-.869.119-1.212.357-.338.232-.598.57-.78 1.013-.183.437-.274.96-.274 1.569v.016c0 .609.091 1.132.274 1.569.182.437.442.775.78 1.013.338.232.742.348 1.212.348Zm6.964-2.3v-1.875h5.545v1.876h-5.545ZM240.333 98l-2.465-9.073h2.075l1.502 6.823h.15l1.743-6.823h1.967l1.752 6.823h.149l1.502-6.823h2.051L248.293 98h-2.158l-1.768-6.574h-.141L242.466 98h-2.133Zm12.235 0v-9.073h2.059V98h-2.059Zm1.038-10.592c-.338 0-.628-.119-.872-.357a1.155 1.155 0 0 1-.365-.855c0-.343.122-.63.365-.863.244-.238.534-.357.872-.357.338 0 .625.12.863.357.244.232.365.52.365.863 0 .332-.121.617-.365.855a1.175 1.175 0 0 1-.863.357Zm7.139 10.633c-1.041 0-1.791-.19-2.25-.572-.459-.382-.689-1.007-.689-1.876v-5.064h-1.411v-1.602h1.411v-2.224h2.1v2.224h1.909v1.602h-1.909v4.574c0 .448.094.778.282.988.194.205.504.307.93.307.15 0 .271-.003.365-.008l.332-.034v1.594c-.143.028-.309.05-.498.067a6.308 6.308 0 0 1-.572.025Zm4.673.117a1.3 1.3 0 0 1-.946-.374 1.28 1.28 0 0 1-.374-.93c0-.37.125-.68.374-.93.254-.254.57-.381.946-.381.382 0 .697.127.946.382.249.249.374.559.374.93 0 .365-.125.675-.374.93-.249.248-.564.373-.946.373Zm4.848 0c-.377 0-.692-.125-.947-.374a1.28 1.28 0 0 1-.373-.93 1.288 1.288 0 0 1 1.32-1.311c.381 0 .697.127.946.382.249.249.373.559.373.93 0 .365-.124.675-.373.93-.249.248-.565.373-.946.373Zm4.847 0a1.3 1.3 0 0 1-.946-.374 1.28 1.28 0 0 1-.374-.93c0-.37.125-.68.374-.93.255-.254.57-.381.946-.381.382 0 .698.127.947.382.249.249.373.559.373.93 0 .365-.124.675-.373.93-.249.248-.565.373-.947.373Z"/>
        <path fill="color(display-p3 .8 .7882 .8627)" d="M287.358 95.387a.858.858 0 0 1-.344-.07 1.046 1.046 0 0 1-.306-.225l-5.205-5.382a.952.952 0 0 1-.177-.258.825.825 0 0 1-.059-.311.797.797 0 0 1 .398-.704.787.787 0 0 1 .413-.113.82.82 0 0 1 .591.247l5 5.183h-.607l4.99-5.183a.819.819 0 0 1 1.289.156c.076.122.113.26.113.414a.721.721 0 0 1-.064.306.87.87 0 0 1-.172.258l-5.205 5.381c-.096.1-.199.176-.306.226a.815.815 0 0 1-.349.075Z"/>
        <path fill="color(display-p3 .9451 1 .7686)" d="M388.159 85.607c.282 0 .52.1.714.299a.957.957 0 0 1 .298.714v7.72l-1.187-3.661 3.719 5.047c.188.26.271.528.249.805-.016.27-.146.49-.39.655-.26.178-.528.241-.805.191-.271-.05-.512-.213-.722-.49l-2.598-3.42c-.194-.254-.291-.514-.291-.78V86.62c0-.283.1-.52.299-.714a.974.974 0 0 1 .714-.3Zm.108 17.207a10.15 10.15 0 0 1-3.478-.597 11.196 11.196 0 0 1-3.022-1.66 11.915 11.915 0 0 1-2.374-2.457c-.155-.2-.213-.407-.174-.623a.717.717 0 0 1 .34-.498.706.706 0 0 1 .581-.091.9.9 0 0 1 .506.348 9.332 9.332 0 0 0 2.001 2.117 9.294 9.294 0 0 0 2.598 1.403 9.145 9.145 0 0 0 3.022.515 9.124 9.124 0 0 0 2.921-.465c.93-.31 1.78-.747 2.549-1.312a9.108 9.108 0 0 0 2.009-2.009 9.191 9.191 0 0 0 1.319-2.548c.31-.93.465-1.906.465-2.93a9.152 9.152 0 0 0-1.784-5.479 9.192 9.192 0 0 0-2.009-2 9.187 9.187 0 0 0-2.549-1.312 9.126 9.126 0 0 0-2.921-.465 9.23 9.23 0 0 0-2.939.465 9.22 9.22 0 0 0-2.54 1.312 9.191 9.191 0 0 0-3.32 4.54 9.156 9.156 0 0 0-.465 2.93h-1.544c0-1.184.183-2.313.548-3.386.365-1.08.88-2.07 1.544-2.972a11.148 11.148 0 0 1 2.357-2.349 10.873 10.873 0 0 1 2.964-1.544 10.37 10.37 0 0 1 3.395-.556c1.184 0 2.313.185 3.386.556a10.72 10.72 0 0 1 2.972 1.552 10.995 10.995 0 0 1 2.349 2.35 10.7 10.7 0 0 1 1.552 2.971c.366 1.074.548 2.203.548 3.387a10.48 10.48 0 0 1-.548 3.387 10.699 10.699 0 0 1-1.552 2.971 10.989 10.989 0 0 1-2.349 2.349 10.842 10.842 0 0 1-2.972 1.544 10.29 10.29 0 0 1-3.386.556Zm-12.194-12.816h4.831c.221 0 .39.047.506.141a.425.425 0 0 1 .166.365c0 .15-.063.313-.191.49l-2.357 3.362c-.155.221-.335.335-.54.34-.204 0-.384-.113-.539-.34l-2.358-3.354c-.127-.177-.193-.34-.199-.49a.437.437 0 0 1 .166-.373c.116-.094.288-.141.515-.141Z"/>
      </g>
      <rect width="367" height="474" x="34.5" y="129.5" fill="color(display-p3 .1255 .1882 .1961)" rx="12.5"/>
      <rect width="367" height="474" x="34.5" y="129.5" stroke="color(display-p3 .1569 .2353 .2431)" rx="12.5"/>
      <path fill="color(display-p3 .6039 .8039 .7961)" d="M53.761 151.189h1.257v1.93h2.736v1.048h-2.717v3.738c0 .686.476 1.06 1.358 1.06.324 0 1.168-.012 1.32-.031v1.041c-.139.025-1.142.05-1.408.05-1.771 0-2.546-.634-2.546-2.12v-3.738h-1.828v-1.048h1.828v-1.93Zm9.008.273c-.566 0-.984-.393-.984-.939 0-.552.419-.946.984-.946.57 0 .983.394.983.946 0 .546-.412.939-.983.939Zm2.92 8.538H59.88v-1.028h2.33v-4.863h-2.28v-1.028h3.523v5.891h2.234V160Zm3.345-8.811h1.256v1.93h2.736v1.048H70.31v3.738c0 .686.476 1.06 1.359 1.06.323 0 1.168-.012 1.32-.031v1.041c-.14.025-1.142.05-1.41.05-1.77 0-2.544-.634-2.544-2.12v-3.738h-1.829v-1.048h1.829v-1.93ZM80.96 160h-5.808v-1.028h2.316v-7.554h-2.266v-1.035h3.536v8.589h2.222V160Zm6.36-1.828h1.219c-.184 1.161-1.327 1.961-2.819 1.961-1.942 0-3.053-1.142-3.053-3.11v-1.054c0-1.822 1.187-3.021 2.983-3.021 1.81 0 2.908 1.193 2.908 3.161v.749h-4.64v.311c0 1.168.704 1.917 1.796 1.917.819 0 1.434-.349 1.606-.914Zm-1.682-4.183c-1.073 0-1.72.736-1.72 1.974h3.39c0-1.232-.623-1.974-1.67-1.974Z"/>
      <path fill="#fff" d="M52.74 182v-1.009h2.83c.69 0 1.213-.138 1.568-.413.356-.275.533-.675.533-1.2v-.012c0-.352-.082-.646-.247-.883-.165-.237-.413-.414-.743-.533-.326-.118-.732-.178-1.219-.178H52.74v-.983h2.4c.694 0 1.214-.123 1.561-.369.351-.245.527-.609.527-1.091v-.013c0-.466-.159-.825-.476-1.079-.313-.258-.753-.387-1.32-.387H52.74v-1.01h2.933c.563 0 1.045.093 1.447.28.406.186.717.45.933.793.22.339.33.741.33 1.206v.013c0 .317-.072.616-.215.895-.14.279-.328.514-.565.704a1.772 1.772 0 0 1-.8.369v.101c.419.051.78.176 1.085.375.305.199.54.457.705.774.17.313.254.671.254 1.073v.013c0 .533-.125.992-.375 1.377-.245.381-.599.675-1.06.882-.461.203-1.018.305-1.67.305H52.74Zm-.572 0v-9.16h1.142V182h-1.142Zm11.197.121c-.651 0-1.212-.144-1.682-.432a2.858 2.858 0 0 1-1.079-1.219c-.25-.529-.374-1.151-.374-1.866v-.006c0-.707.124-1.327.374-1.86.254-.533.611-.95 1.073-1.251.461-.3 1-.45 1.618-.45.622 0 1.156.144 1.6.431.449.288.791.69 1.028 1.206.242.512.362 1.109.362 1.79v.432h-5.484v-.882h4.92l-.547.806v-.438c0-.538-.08-.98-.24-1.327-.162-.347-.384-.605-.667-.774a1.83 1.83 0 0 0-.978-.26c-.368 0-.698.09-.99.272a1.845 1.845 0 0 0-.686.794c-.169.351-.254.783-.254 1.295v.438c0 .486.083.903.248 1.25.165.343.4.608.705.794.304.182.664.273 1.079.273.309 0 .577-.043.806-.127a1.78 1.78 0 0 0 .565-.324 1.17 1.17 0 0 0 .31-.4l.026-.057h1.105l-.013.051a2.1 2.1 0 0 1-.317.679 2.52 2.52 0 0 1-.578.59 2.964 2.964 0 0 1-.844.419 3.583 3.583 0 0 1-1.086.153ZM68 182v-6.843h1.105v1.029h.101c.174-.364.423-.646.75-.845.325-.203.74-.304 1.243-.304.77 0 1.36.22 1.771.66.415.436.622 1.06.622 1.872V182h-1.104v-4.164c0-.618-.131-1.075-.394-1.371-.258-.301-.66-.451-1.206-.451-.364 0-.679.078-.946.235a1.608 1.608 0 0 0-.622.667c-.144.287-.216.632-.216 1.034V182H68Zm10.023.051c-.703 0-1.212-.142-1.53-.426-.313-.283-.47-.751-.47-1.402v-4.152h-1.079v-.914h1.08v-1.771h1.142v1.771h1.498v.914h-1.498v3.872c0 .402.076.692.229.87.152.173.406.26.761.26.098 0 .18-.002.248-.006.072-.004.158-.011.26-.019v.939a8.65 8.65 0 0 1-.317.045 2.869 2.869 0 0 1-.324.019Zm5.015.07c-.648 0-1.209-.142-1.683-.426a2.873 2.873 0 0 1-1.091-1.225c-.254-.529-.381-1.157-.381-1.885v-.013c0-.732.127-1.362.38-1.891a2.834 2.834 0 0 1 1.093-1.219c.474-.284 1.034-.425 1.682-.425.651 0 1.212.141 1.682.425.47.283.831.69 1.085 1.219.258.529.387 1.159.387 1.891v.013c0 .728-.129 1.356-.387 1.885a2.833 2.833 0 0 1-1.085 1.225c-.47.284-1.03.426-1.682.426Zm0-.978c.431 0 .797-.101 1.098-.305.3-.203.529-.495.685-.876.161-.38.242-.84.242-1.377v-.013c0-.541-.08-1.003-.242-1.384-.156-.38-.385-.67-.685-.869-.3-.203-.667-.305-1.098-.305-.432 0-.798.102-1.099.305-.3.199-.53.489-.691.869-.157.381-.235.843-.235 1.384v.013c0 .537.078.997.235 1.377.16.381.391.673.692.876.3.204.666.305 1.098.305Zm9.845.857-1.917-6.843h1.104l1.346 5.472h.102l1.53-5.472h1.047l1.53 5.472h.101l1.346-5.472h1.098L98.252 182h-1.11l-1.53-5.294h-.102L93.986 182h-1.104Zm8.772 0v-6.843h1.105V182h-1.105Zm.559-8.163a.751.751 0 0 1-.54-.222.75.75 0 0 1-.222-.54c0-.211.074-.391.222-.539a.752.752 0 0 1 .54-.223c.211 0 .391.075.539.223a.731.731 0 0 1 .223.539.747.747 0 0 1-.223.54.734.734 0 0 1-.539.222Zm5.059 8.214c-.703 0-1.212-.142-1.53-.426-.313-.283-.47-.751-.47-1.402v-4.152h-1.079v-.914h1.079v-1.771h1.143v1.771h1.498v.914h-1.498v3.872c0 .402.076.692.229.87.152.173.406.26.761.26.098 0 .18-.002.248-.006.072-.004.159-.011.26-.019v.939a8.947 8.947 0 0 1-.317.045 2.877 2.877 0 0 1-.324.019Zm2.355-.051v-9.56h1.104v3.746h.102c.174-.364.423-.646.749-.845.326-.203.741-.304 1.244-.304.512 0 .946.099 1.301.298.356.195.627.48.813.857.186.377.279.836.279 1.377V182h-1.104v-4.164c0-.618-.131-1.075-.394-1.371-.258-.301-.66-.451-1.206-.451-.364 0-.679.078-.946.235a1.611 1.611 0 0 0-.622.667c-.144.287-.216.632-.216 1.034V182h-1.104Zm15.076.216c-.83 0-1.547-.195-2.152-.584-.605-.389-1.073-.942-1.403-1.657-.326-.715-.489-1.564-.489-2.545v-.013c0-.986.163-1.837.489-2.552.33-.715.796-1.267 1.396-1.657.606-.389 1.323-.583 2.152-.583.644 0 1.228.126 1.752.38.529.25.965.599 1.308 1.048.343.444.558.958.647 1.542l-.006.013h-1.149l-.006-.013a2.515 2.515 0 0 0-.514-1.015 2.464 2.464 0 0 0-.883-.667 2.744 2.744 0 0 0-1.149-.235c-.584 0-1.092.153-1.523.457-.428.305-.758.737-.99 1.295-.233.559-.35 1.221-.35 1.987v.013c0 .761.117 1.422.35 1.98.232.559.562.99.99 1.295.431.305.941.457 1.53.457.427 0 .814-.068 1.161-.203.347-.14.639-.336.876-.59.237-.258.402-.563.495-.914l.013-.013h1.155v.013a3.154 3.154 0 0 1-.66 1.46 3.42 3.42 0 0 1-1.288.958c-.517.229-1.101.343-1.752.343Zm8.62 0c-.669 0-1.253-.108-1.752-.324-.495-.22-.889-.52-1.181-.901a2.554 2.554 0 0 1-.501-1.321l-.007-.069h1.143l.006.069c.03.305.146.57.349.794.208.22.483.391.826.514.347.123.74.184 1.18.184.415 0 .783-.065 1.105-.197a1.85 1.85 0 0 0 .768-.558 1.29 1.29 0 0 0 .279-.819v-.006c0-.381-.14-.701-.419-.959-.279-.262-.734-.463-1.365-.603l-1.015-.222c-.919-.203-1.587-.516-2.006-.94-.415-.427-.622-.973-.622-1.637v-.007c.004-.507.142-.956.412-1.345.276-.39.654-.694 1.137-.914.486-.22 1.045-.33 1.675-.33.61 0 1.149.11 1.619.33.47.215.842.507 1.117.876.28.368.434.78.464 1.237l.006.089h-1.143l-.012-.082a1.433 1.433 0 0 0-.33-.718 1.826 1.826 0 0 0-.711-.501 2.633 2.633 0 0 0-1.041-.178c-.381 0-.724.059-1.029.178-.304.118-.548.29-.73.514-.177.22-.266.491-.266.813v.006c0 .364.135.671.406.92.271.25.717.443 1.339.578l1.016.229c.639.139 1.153.321 1.543.545.389.225.672.5.85.826.182.321.273.702.273 1.142v.007c0 .571-.14 1.064-.419 1.479-.279.414-.673.736-1.181.964-.507.225-1.102.337-1.783.337Zm8.29 0c-.669 0-1.253-.108-1.752-.324-.495-.22-.889-.52-1.181-.901a2.554 2.554 0 0 1-.501-1.321l-.007-.069h1.143l.006.069c.03.305.146.57.349.794.208.22.483.391.826.514.347.123.74.184 1.18.184.415 0 .783-.065 1.105-.197a1.85 1.85 0 0 0 .768-.558 1.29 1.29 0 0 0 .279-.819v-.006c0-.381-.14-.701-.419-.959-.279-.262-.734-.463-1.365-.603l-1.015-.222c-.918-.203-1.587-.516-2.006-.94-.415-.427-.622-.973-.622-1.637v-.007c.004-.507.142-.956.412-1.345.276-.39.654-.694 1.137-.914.486-.22 1.045-.33 1.675-.33.61 0 1.149.11 1.619.33.47.215.842.507 1.117.876.28.368.434.78.464 1.237l.006.089h-1.143l-.012-.082a1.433 1.433 0 0 0-.33-.718 1.826 1.826 0 0 0-.711-.501 2.63 2.63 0 0 0-1.041-.178c-.381 0-.724.059-1.029.178-.304.118-.548.29-.73.514-.177.22-.266.491-.266.813v.006c0 .364.135.671.406.92.271.25.717.443 1.339.578l1.016.229c.639.139 1.153.321 1.543.545.389.225.672.5.85.826.182.321.273.702.273 1.142v.007c0 .571-.14 1.064-.419 1.479-.279.414-.673.736-1.181.964-.507.225-1.102.337-1.783.337Zm11.622 2.196c-.55 0-1.03-.078-1.441-.235-.41-.152-.738-.37-.983-.654a1.92 1.92 0 0 1-.451-.977l.013-.006h1.142l.006.006c.06.258.237.47.534.635.296.169.689.254 1.18.254.614 0 1.092-.14 1.435-.419.347-.275.52-.665.52-1.168v-1.384h-.101a2.327 2.327 0 0 1-1.27 1.047c-.27.089-.562.134-.876.134-.588 0-1.098-.14-1.529-.419a2.795 2.795 0 0 1-.991-1.168c-.232-.496-.349-1.063-.349-1.702v-.012c0-.639.117-1.206.349-1.701.237-.5.572-.891 1.003-1.175.432-.287.946-.431 1.543-.431.321 0 .618.05.888.152.271.102.51.245.718.432.211.186.387.408.527.666h.076v-1.13h1.104v6.748c0 .508-.125.95-.374 1.326-.246.377-.597.667-1.054.87-.457.207-.997.311-1.619.311Zm-.05-3.745c.423 0 .785-.097 1.085-.292.305-.199.537-.472.698-.819.165-.347.248-.747.248-1.2v-.012c0-.453-.083-.855-.248-1.206a1.906 1.906 0 0 0-.698-.826c-.3-.198-.662-.298-1.085-.298-.424 0-.783.1-1.08.298a1.907 1.907 0 0 0-.672.826 2.992 2.992 0 0 0-.229 1.206v.012c0 .453.076.853.229 1.2.156.347.38.62.672.819.297.195.656.292 1.08.292ZM158.34 182v-6.843h1.104v1.016h.102a1.62 1.62 0 0 1 .666-.838c.314-.199.701-.298 1.162-.298.106 0 .21.006.311.019.106.008.186.017.241.025v1.073a3.373 3.373 0 0 0-.336-.045 3.043 3.043 0 0 0-.343-.019c-.351 0-.662.07-.933.21a1.601 1.601 0 0 0-.641.584 1.648 1.648 0 0 0-.229.876V182h-1.104Zm4.976 0v-6.843h1.105V182h-1.105Zm.559-8.163a.751.751 0 0 1-.54-.222.75.75 0 0 1-.222-.54c0-.211.074-.391.222-.539a.752.752 0 0 1 .54-.223c.212 0 .391.075.54.223a.734.734 0 0 1 .222.539.75.75 0 0 1-.222.54.737.737 0 0 1-.54.222Zm5.154 8.284c-.575 0-1.079-.146-1.51-.438-.432-.292-.766-.703-1.003-1.232-.237-.533-.356-1.155-.356-1.866v-.013c0-.715.119-1.337.356-1.866.237-.529.569-.939.996-1.231.432-.292.938-.438 1.517-.438.313 0 .608.05.883.152.279.097.527.235.742.413.216.177.385.389.508.634h.102v-3.796h1.104V182h-1.104v-1.092h-.102c-.14.254-.315.472-.527.654a2.359 2.359 0 0 1-.723.413 2.6 2.6 0 0 1-.883.146Zm.254-.978c.415 0 .773-.104 1.073-.311.3-.207.531-.501.692-.882.161-.385.241-.84.241-1.365v-.013c0-.529-.08-.984-.241-1.364a1.98 1.98 0 0 0-.692-.883c-.3-.207-.658-.311-1.073-.311-.414 0-.772.104-1.073.311-.296.203-.524.495-.685.876-.157.381-.235.838-.235 1.371v.013c0 .529.078.986.235 1.371.161.381.389.675.685.882.301.204.659.305 1.073.305Z"/>
      <rect width="345" height="50" x="43" y="198" fill="color(display-p3 .2 .302 .3137)" rx="8"/>
      <path fill="color(display-p3 .6039 .8039 .7961)" d="M54.485 216.114c-1.593 0-2.609-1.136-2.609-2.945v-1.257c0-1.809 1.016-2.945 2.609-2.945.996 0 1.726.438 2.006 1.212h.12v-3.796h1.308V216h-1.276v-1.092h-.12c-.33.781-1.042 1.206-2.038 1.206Zm.419-1.13c1.066 0 1.74-.749 1.74-1.936v-1.034c0-1.194-.674-1.943-1.74-1.943-1.067 0-1.74.756-1.74 1.943v1.034c0 1.187.673 1.936 1.74 1.936Zm6.982 1.13c-1.32 0-2.196-.831-2.196-2.082 0-1.231.889-1.955 2.5-2.05l1.816-.095v-.61c0-.793-.495-1.237-1.383-1.237-.737 0-1.264.317-1.429.863H59.95c.127-1.143 1.212-1.917 2.698-1.917 1.67 0 2.621.838 2.621 2.291v4.729h-1.212v-1.009h-.12c-.33.711-1.073 1.117-2.05 1.117Zm.394-1.06c.99 0 1.726-.654 1.726-1.536v-.73l-1.644.083c-.92.05-1.403.431-1.403 1.104 0 .667.508 1.079 1.32 1.079Zm6.754-7.865h1.256v1.93h2.736v1.048H70.31v3.738c0 .686.476 1.06 1.359 1.06.323 0 1.168-.012 1.32-.031v1.041c-.14.025-1.142.05-1.41.05-1.77 0-2.544-.634-2.544-2.12v-3.738h-1.829v-1.048h1.829v-1.93Zm10.65 6.983h1.22c-.185 1.161-1.327 1.961-2.819 1.961-1.942 0-3.053-1.142-3.053-3.11v-1.054c0-1.822 1.187-3.021 2.983-3.021 1.81 0 2.908 1.193 2.908 3.161v.749h-4.64v.311c0 1.168.704 1.917 1.796 1.917.819 0 1.434-.349 1.606-.914Zm-1.681-4.183c-1.073 0-1.72.736-1.72 1.974h3.39c0-1.232-.623-1.974-1.67-1.974Z"/>
      <path fill="#fff" d="M52.022 238v-.787l3.098-3.352c.389-.423.694-.772.914-1.047.22-.279.374-.531.463-.755.089-.225.133-.47.133-.737v-.012c0-.322-.07-.61-.21-.864a1.54 1.54 0 0 0-.596-.603c-.258-.148-.567-.222-.926-.222-.365 0-.684.076-.959.229a1.577 1.577 0 0 0-.641.628c-.153.267-.229.58-.229.939l-.006.013-1.092-.006-.012-.007a2.73 2.73 0 0 1 .393-1.44 2.671 2.671 0 0 1 1.067-.991c.452-.241.97-.361 1.555-.361.533 0 1.013.112 1.44.336.428.22.764.523 1.01.908.25.385.374.825.374 1.32v.013c0 .347-.061.681-.184 1.003-.118.321-.33.679-.634 1.072-.305.39-.735.87-1.29 1.441l-2.367 2.444.286-.527v.527l-.28-.19h4.622V238h-5.929Zm10.912.216c-.677 0-1.257-.195-1.74-.584-.478-.389-.846-.942-1.104-1.657-.258-.719-.387-1.57-.387-2.552v-.012c0-.982.129-1.831.387-2.546.258-.715.626-1.267 1.104-1.657.483-.389 1.063-.583 1.74-.583s1.256.194 1.739.583c.482.39.853.942 1.11 1.657.263.715.394 1.564.394 2.546v.012c0 .982-.13 1.833-.393 2.552-.258.715-.629 1.268-1.111 1.657-.483.389-1.062.584-1.74.584Zm0-.997c.44 0 .814-.154 1.123-.463.313-.309.552-.747.717-1.314.17-.567.254-1.24.254-2.019v-.012c0-.779-.084-1.45-.254-2.013-.165-.567-.404-1.002-.717-1.307a1.53 1.53 0 0 0-1.123-.464c-.436 0-.81.155-1.124.464-.309.305-.546.74-.71 1.307-.166.563-.248 1.234-.248 2.013v.012c0 .779.082 1.452.247 2.019.165.567.402 1.005.711 1.314.313.309.688.463 1.124.463Zm5.122.781v-.787l3.098-3.352c.39-.423.694-.772.914-1.047.22-.279.374-.531.463-.755.09-.225.134-.47.134-.737v-.012c0-.322-.07-.61-.21-.864a1.541 1.541 0 0 0-.597-.603c-.258-.148-.567-.222-.926-.222a1.94 1.94 0 0 0-.959.229 1.578 1.578 0 0 0-.641.628c-.152.267-.228.58-.228.939l-.007.013-1.092-.006-.012-.007a2.731 2.731 0 0 1 .393-1.44 2.672 2.672 0 0 1 1.067-.991c.452-.241.97-.361 1.555-.361.533 0 1.013.112 1.44.336.428.22.765.523 1.01.908.25.385.374.825.374 1.32v.013c0 .347-.06.681-.184 1.003-.118.321-.33.679-.634 1.072-.305.39-.734.87-1.289 1.441l-2.368 2.444.286-.527v.527l-.28-.19h4.622V238h-5.929Zm11.838 0v-1.898h-4.462v-1.041c.25-.415.504-.834.762-1.257.258-.427.518-.853.78-1.276a175.829 175.829 0 0 1 1.594-2.507c.267-.406.529-.8.787-1.181h1.657v6.24h1.301v1.022h-1.301V238h-1.118Zm-3.294-2.914h3.3V229.9h-.075a229.259 229.259 0 0 0-1.295 1.981 143.675 143.675 0 0 0-1.314 2.101c-.212.347-.417.69-.616 1.028v.076Zm7.389-.26v-1.028h4.265v1.028H83.99Zm9.286 3.39c-.677 0-1.256-.195-1.739-.584-.478-.389-.846-.942-1.104-1.657-.258-.719-.388-1.57-.388-2.552v-.012c0-.982.13-1.831.388-2.546.258-.715.626-1.267 1.104-1.657.483-.389 1.062-.583 1.74-.583.677 0 1.256.194 1.739.583.482.39.852.942 1.11 1.657.263.715.394 1.564.394 2.546v.012c0 .982-.131 1.833-.394 2.552-.258.715-.628 1.268-1.11 1.657-.483.389-1.063.584-1.74.584Zm0-.997c.44 0 .815-.154 1.124-.463.313-.309.552-.747.717-1.314.17-.567.254-1.24.254-2.019v-.012c0-.779-.085-1.45-.254-2.013-.165-.567-.404-1.002-.717-1.307a1.53 1.53 0 0 0-1.124-.464c-.436 0-.81.155-1.123.464-.31.305-.546.74-.711 1.307-.165.563-.248 1.234-.248 2.013v.012c0 .779.083 1.452.248 2.019.165.567.402 1.005.71 1.314.314.309.689.463 1.124.463Zm8.132.997c-.567 0-1.073-.112-1.517-.337a2.86 2.86 0 0 1-1.073-.914 2.747 2.747 0 0 1-.47-1.314l-.006-.069h1.098l.006.05c.038.292.144.559.318.8.177.237.408.425.692.565.287.14.609.21.964.21a2.11 2.11 0 0 0 1.073-.267 1.93 1.93 0 0 0 .724-.749c.173-.317.26-.681.26-1.092v-.013c0-.406-.089-.766-.267-1.079a1.882 1.882 0 0 0-.717-.742 2.049 2.049 0 0 0-1.054-.267c-.304 0-.586.047-.844.14a1.97 1.97 0 0 0-.679.419 2.52 2.52 0 0 0-.229.247 2.272 2.272 0 0 0-.19.299h-.99l.482-5.263h5.097v1.022H99.89l-.311 3.098h.101c.136-.207.303-.381.502-.521.199-.139.421-.245.666-.317a2.69 2.69 0 0 1 .787-.114c.576 0 1.086.133 1.53.4.444.262.793.624 1.047 1.085.254.457.381.982.381 1.574v.013c0 .614-.137 1.157-.412 1.631-.271.47-.646.838-1.124 1.105-.478.267-1.028.4-1.65.4Zm4.938-3.39v-1.028h4.266v1.028h-4.266Zm6.221 3.174v-.787l3.098-3.352c.389-.423.694-.772.914-1.047.22-.279.374-.531.463-.755.089-.225.133-.47.133-.737v-.012c0-.322-.07-.61-.209-.864a1.545 1.545 0 0 0-.597-.603c-.258-.148-.567-.222-.927-.222-.364 0-.683.076-.958.229a1.576 1.576 0 0 0-.641.628c-.153.267-.229.58-.229.939l-.006.013-1.092-.006-.013-.007a2.74 2.74 0 0 1 .394-1.44 2.675 2.675 0 0 1 1.066-.991c.453-.241.972-.361 1.556-.361.533 0 1.013.112 1.44.336.428.22.764.523 1.01.908.249.385.374.825.374 1.32v.013c0 .347-.061.681-.184 1.003-.118.321-.33.679-.635 1.072-.304.39-.734.87-1.288 1.441l-2.368 2.444.286-.527v.527l-.279-.19h4.621V238h-5.929Zm11.838 0v-1.898h-4.462v-1.041c.25-.415.503-.834.762-1.257.258-.427.518-.853.78-1.276a219.306 219.306 0 0 1 1.594-2.507c.266-.406.529-.8.787-1.181h1.656v6.24h1.302v1.022h-1.302V238h-1.117Zm-3.294-2.914h3.301V229.9h-.077a191.694 191.694 0 0 0-1.294 1.981 171.437 171.437 0 0 0-1.314 2.101c-.212.347-.417.69-.616 1.028v.076Zm9.813 2.914v-8.131h-2.951v-1.029h7.046v1.029h-2.952V238h-1.143Zm7.954 0v-7.89h-.102l-2.329 1.688v-1.206l2.437-1.752h1.137V238h-1.143Zm6.855.216c-.677 0-1.256-.195-1.739-.584-.478-.389-.846-.942-1.104-1.657-.258-.719-.388-1.57-.388-2.552v-.012c0-.982.13-1.831.388-2.546.258-.715.626-1.267 1.104-1.657.483-.389 1.062-.583 1.739-.583.678 0 1.257.194 1.74.583.482.39.852.942 1.111 1.657.262.715.393 1.564.393 2.546v.012c0 .982-.131 1.833-.393 2.552-.259.715-.629 1.268-1.111 1.657-.483.389-1.062.584-1.74.584Zm0-.997a1.53 1.53 0 0 0 1.124-.463c.313-.309.552-.747.717-1.314.17-.567.254-1.24.254-2.019v-.012c0-.779-.084-1.45-.254-2.013-.165-.567-.404-1.002-.717-1.307a1.53 1.53 0 0 0-1.124-.464c-.435 0-.81.155-1.123.464-.309.305-.546.74-.711 1.307-.165.563-.248 1.234-.248 2.013v.012c0 .779.083 1.452.248 2.019.165.567.402 1.005.711 1.314.313.309.688.463 1.123.463Zm6.031-.52a.811.811 0 0 1-.584-.241.81.81 0 0 1-.241-.584c0-.229.08-.424.241-.584a.808.808 0 0 1 .584-.242c.228 0 .423.081.584.242.16.16.241.355.241.584a.814.814 0 0 1-.241.584.8.8 0 0 1-.584.241Zm0-4.913a.808.808 0 0 1-.584-.242.807.807 0 0 1-.241-.584c0-.228.08-.423.241-.584a.811.811 0 0 1 .584-.241.8.8 0 0 1 .584.241.8.8 0 0 1 .241.584.811.811 0 0 1-.241.584.797.797 0 0 1-.584.242Zm5.192 6.214v-7.89h-.101l-2.33 1.688v-1.206l2.437-1.752h1.137V238h-1.143Zm6.786-9.375c.419 0 .831.08 1.238.241.41.161.78.421 1.11.78.335.36.601.836.8 1.429.199.588.299 1.314.299 2.177v.013c0 1.041-.14 1.931-.419 2.672-.28.736-.682 1.301-1.207 1.695-.524.389-1.157.584-1.897.584-.512 0-.976-.093-1.391-.279a2.854 2.854 0 0 1-1.028-.794 2.898 2.898 0 0 1-.571-1.181l-.019-.082h1.149l.025.07c.093.254.224.474.394.66.173.186.38.33.622.432.245.101.522.152.831.152.555 0 1.005-.161 1.352-.483.347-.325.605-.757.775-1.294a6.574 6.574 0 0 0 .285-1.759 2.02 2.02 0 0 0 .007-.171v-.172l-.273-1.523c0-.402-.093-.766-.28-1.092a2.066 2.066 0 0 0-.742-.774 1.921 1.921 0 0 0-1.048-.292c-.38 0-.727.095-1.041.285a2.105 2.105 0 0 0-1.028 1.835v.013c0 .406.089.768.267 1.085.177.313.421.561.73.743.309.177.66.266 1.053.266a2.13 2.13 0 0 0 1.067-.266c.313-.178.56-.421.742-.73a2.04 2.04 0 0 0 .28-1.067v-.006h.374v1.65h-.222a2.16 2.16 0 0 1-.508.699 2.548 2.548 0 0 1-.825.52 2.91 2.91 0 0 1-1.104.197 2.968 2.968 0 0 1-1.537-.4 2.926 2.926 0 0 1-1.072-1.092 3.141 3.141 0 0 1-.394-1.574v-.013c0-.609.138-1.151.413-1.625.279-.478.66-.852 1.142-1.123a3.336 3.336 0 0 1 1.651-.406Zm6.189 8.074a.811.811 0 0 1-.584-.241.811.811 0 0 1-.242-.584c0-.229.081-.424.242-.584a.808.808 0 0 1 .584-.242c.228 0 .423.081.584.242.16.16.241.355.241.584a.814.814 0 0 1-.241.584.8.8 0 0 1-.584.241Zm0-4.913a.808.808 0 0 1-.584-.242.808.808 0 0 1-.242-.584c0-.228.081-.423.242-.584a.811.811 0 0 1 .584-.241.8.8 0 0 1 .584.241.8.8 0 0 1 .241.584.811.811 0 0 1-.241.584.797.797 0 0 1-.584.242Zm5.192 6.214v-7.89h-.101l-2.33 1.688v-1.206l2.437-1.752h1.137V238h-1.143Zm6.798.216c-.567 0-1.072-.112-1.517-.337a2.854 2.854 0 0 1-1.072-.914 2.738 2.738 0 0 1-.47-1.314l-.007-.069h1.099l.006.05c.038.292.144.559.317.8.178.237.409.425.692.565.288.14.61.21.965.21.406 0 .764-.089 1.073-.267.309-.182.55-.432.723-.749.174-.317.261-.681.261-1.092v-.013c0-.406-.089-.766-.267-1.079a1.882 1.882 0 0 0-.717-.742 2.051 2.051 0 0 0-1.054-.267 2.47 2.47 0 0 0-.844.14 1.97 1.97 0 0 0-.679.419 2.452 2.452 0 0 0-.229.247 2.22 2.22 0 0 0-.19.299h-.99l.482-5.263h5.097v1.022h-4.196l-.311 3.098h.102c.135-.207.302-.381.501-.521.199-.139.421-.245.667-.317.249-.076.512-.114.787-.114.575 0 1.085.133 1.53.4.444.262.793.624 1.047 1.085.254.457.381.982.381 1.574v.013c0 .614-.138 1.157-.413 1.631-.27.47-.645.838-1.123 1.105s-1.029.4-1.651.4Zm5.491-.153a.809.809 0 0 1-.584-.241.807.807 0 0 1-.241-.584c0-.228.08-.423.241-.584a.809.809 0 0 1 .584-.241c.229 0 .423.08.584.241a.796.796 0 0 1 .241.584c0 .225-.08.419-.241.584a.794.794 0 0 1-.584.241Zm5.44-9.438c.419 0 .832.08 1.238.241.41.161.781.421 1.111.78.334.36.601.836.8 1.429.198.588.298 1.314.298 2.177v.013c0 1.041-.14 1.931-.419 2.672-.279.736-.681 1.301-1.206 1.695-.525.389-1.158.584-1.898.584-.512 0-.976-.093-1.39-.279a2.858 2.858 0 0 1-1.029-.794 2.898 2.898 0 0 1-.571-1.181l-.019-.082h1.149l.025.07c.094.254.225.474.394.66.173.186.381.33.622.432.245.101.523.152.832.152.554 0 1.005-.161 1.352-.483.347-.325.605-.757.774-1.294a6.573 6.573 0 0 0 .286-1.759 2.53 2.53 0 0 0 .006-.171v-.172l-.273-1.523c0-.402-.093-.766-.279-1.092a2.069 2.069 0 0 0-.743-.774 1.92 1.92 0 0 0-1.047-.292c-.381 0-.728.095-1.041.285a2.097 2.097 0 0 0-.749.762c-.186.318-.28.675-.28 1.073v.013c0 .406.089.768.267 1.085.178.313.421.561.73.743.309.177.66.266 1.054.266.398 0 .753-.089 1.066-.266.313-.178.561-.421.743-.73a2.05 2.05 0 0 0 .279-1.067v-.006h.375v1.65h-.223c-.11.25-.279.483-.507.699-.225.215-.5.389-.826.52a2.903 2.903 0 0 1-1.104.197 2.967 2.967 0 0 1-1.536-.4 2.921 2.921 0 0 1-1.073-1.092 3.151 3.151 0 0 1-.393-1.574v-.013c0-.609.137-1.151.412-1.625a3 3 0 0 1 1.143-1.123c.486-.271 1.036-.406 1.65-.406Zm7.522 9.375v-7.89h-.102l-2.329 1.688v-1.206l2.437-1.752h1.137V238h-1.143Zm6.919.152c-.647 0-1.221-.112-1.72-.336-.5-.224-.893-.533-1.181-.927a2.297 2.297 0 0 1-.425-1.365v-.012c0-.377.082-.726.247-1.048.165-.321.396-.594.692-.818a2.605 2.605 0 0 1 1.029-.477v-.025c-.5-.157-.898-.415-1.194-.774a1.93 1.93 0 0 1-.444-1.264v-.012c0-.462.129-.872.387-1.232a2.605 2.605 0 0 1 1.067-.857c.452-.211.966-.317 1.542-.317.58 0 1.094.106 1.542.317.453.208.809.493 1.067.857.258.36.387.77.387 1.232v.012c0 .483-.148.904-.444 1.264-.292.359-.69.617-1.194.774v.025c.394.089.737.248 1.029.477.296.224.527.497.692.818.165.322.247.671.247 1.048v.012c0 .512-.142.967-.425 1.365-.284.394-.677.703-1.181.927-.499.224-1.073.336-1.72.336Zm0-.996c.423 0 .796-.072 1.117-.216.326-.148.582-.349.768-.603.186-.258.28-.552.28-.882v-.013c0-.334-.094-.631-.28-.889a1.838 1.838 0 0 0-.761-.609 2.694 2.694 0 0 0-1.124-.222c-.423 0-.798.074-1.124.222a1.893 1.893 0 0 0-.768.609 1.505 1.505 0 0 0-.273.889v.013c0 .33.094.624.28.882.186.254.442.455.768.603.326.144.698.216 1.117.216Zm0-4.437c.368 0 .692-.064.971-.191.279-.131.497-.311.654-.539.157-.229.235-.491.235-.787v-.013c0-.296-.078-.559-.235-.787a1.548 1.548 0 0 0-.654-.533 2.248 2.248 0 0 0-.971-.197c-.368 0-.692.065-.971.197a1.548 1.548 0 0 0-.654.533 1.355 1.355 0 0 0-.235.787v.013c0 .296.078.558.235.787.157.228.375.408.654.539.279.127.603.191.971.191Zm5.065 5.281v-.812l5.186-7.218v-.101h-5.008v-1.029h6.487v.813l-5.16 7.217v.102h5.268V238h-6.773Zm20.254 1.898a6.224 6.224 0 0 1-2.501-.508 6.614 6.614 0 0 1-2.063-1.403 6.62 6.62 0 0 1-1.403-2.063 6.241 6.241 0 0 1-.508-2.501c0-.884.17-1.716.508-2.494a6.667 6.667 0 0 1 1.397-2.07 6.617 6.617 0 0 1 2.063-1.402 6.22 6.22 0 0 1 2.5-.508 6.22 6.22 0 0 1 2.501.508 6.613 6.613 0 0 1 3.473 3.472c.338.778.507 1.61.507 2.494a6.24 6.24 0 0 1-.507 2.501 6.637 6.637 0 0 1-3.473 3.466 6.177 6.177 0 0 1-2.494.508Zm-2.92-6.176a2.9 2.9 0 0 0 .393 1.491 3.01 3.01 0 0 0 1.054 1.073c.44.263.931.394 1.473.394.537 0 1.026-.131 1.466-.394a3.007 3.007 0 0 0 1.06-1.066c.263-.445.394-.935.394-1.473a.405.405 0 0 0-.14-.311.425.425 0 0 0-.311-.133.44.44 0 0 0-.324.133.412.412 0 0 0-.133.311c0 .377-.091.717-.273 1.022a2.026 2.026 0 0 1-.724.73 1.94 1.94 0 0 1-1.015.273c-.373 0-.711-.091-1.016-.273a2.083 2.083 0 0 1-.73-.73 1.997 1.997 0 0 1-.266-1.022c0-.372.089-.711.266-1.016a2.04 2.04 0 0 1 .73-.723 1.943 1.943 0 0 1 1.016-.273c.093 0 .169.004.228.013l-.628.628a.407.407 0 0 0-.127.298c0 .119.04.218.121.299a.404.404 0 0 0 .584-.007l1.269-1.269a.37.37 0 0 0 .114-.299.425.425 0 0 0-.114-.304l-1.257-1.282a.47.47 0 0 0-.139-.096.395.395 0 0 0-.457.089.397.397 0 0 0-.121.292c0 .059.011.117.032.172.021.05.048.095.082.133l.457.47a.367.367 0 0 0-.082-.007.665.665 0 0 0-.089-.006c-.491 0-.95.127-1.378.381a2.976 2.976 0 0 0-1.028 1.034 2.768 2.768 0 0 0-.387 1.448Z"/>
      <path fill="color(display-p3 .6039 .8039 .7961)" d="M58.052 272h-5.808v-1.028h2.317v-7.554h-2.266v-1.035h3.536v8.589h2.221V272Zm3.834.114c-1.32 0-2.196-.831-2.196-2.082 0-1.231.889-1.955 2.5-2.05l1.816-.095v-.61c0-.793-.495-1.237-1.383-1.237-.737 0-1.264.317-1.429.863H59.95c.127-1.143 1.212-1.917 2.698-1.917 1.67 0 2.621.838 2.621 2.291v4.729h-1.212v-1.009h-.12c-.33.711-1.073 1.117-2.05 1.117Zm.394-1.06c.99 0 1.726-.654 1.726-1.536v-.73l-1.644.083c-.92.05-1.403.431-1.403 1.104 0 .667.508 1.079 1.32 1.079Zm5.408-4.062c0-1.238 1.034-2.051 2.621-2.051 1.511 0 2.501.724 2.616 1.924h-1.22c-.113-.565-.653-.914-1.415-.914-.812 0-1.339.381-1.339.952 0 .495.336.768 1.143.946l1.003.222c1.364.304 1.98.888 1.98 1.904 0 1.314-1.085 2.152-2.774 2.152-1.631 0-2.685-.73-2.8-1.949h1.283c.14.591.71.927 1.549.927.87 0 1.428-.387 1.428-.99 0-.508-.311-.768-1.149-.959l-1.035-.235c-1.263-.285-1.891-.92-1.891-1.929Zm8.982-3.803h1.257v1.93h2.735v1.048h-2.717v3.738c0 .686.477 1.06 1.359 1.06.324 0 1.168-.012 1.32-.031v1.041c-.14.025-1.142.05-1.409.05-1.771 0-2.545-.634-2.545-2.12v-3.738h-1.83v-1.048h1.829v-1.93Zm12.276 3.638V272h-1.117v-4.78c0-.742-.292-1.142-.813-1.142-.546 0-.889.469-.889 1.231V272h-1.11v-4.786c0-.743-.286-1.136-.813-1.136-.558 0-.907.469-.907 1.231V272h-1.118v-6.919h1.124v1.003h.14c.165-.717.653-1.136 1.313-1.136.648 0 1.099.406 1.245 1.111h.14c.164-.686.697-1.111 1.383-1.111.933 0 1.422.654 1.422 1.879Zm4.253 5.306c-1.867 0-3.053-1.193-3.053-3.066v-1.047c0-1.879 1.186-3.066 3.053-3.066 1.866 0 3.053 1.187 3.053 3.066v1.047c0 1.873-1.187 3.066-3.053 3.066Zm0-6.1c-1.105 0-1.797.794-1.797 2.076v.87c0 1.282.692 2.075 1.797 2.075 1.104 0 1.796-.793 1.796-2.075v-.87c0-1.282-.692-2.076-1.796-2.076Zm7.103 6.081c-1.594 0-2.61-1.136-2.61-2.945v-1.257c0-1.809 1.016-2.945 2.61-2.945.996 0 1.726.438 2.006 1.212h.12v-3.796h1.308V272h-1.276v-1.092h-.121c-.33.781-1.041 1.206-2.037 1.206Zm.419-1.13c1.066 0 1.739-.749 1.739-1.936v-1.034c0-1.194-.673-1.943-1.739-1.943-1.067 0-1.74.756-1.74 1.943v1.034c0 1.187.673 1.936 1.74 1.936Z"/>
      <path fill="#fff" d="M52.022 294v-.787l3.098-3.352c.389-.423.694-.772.914-1.047.22-.279.374-.531.463-.755.089-.225.133-.47.133-.737v-.012c0-.322-.07-.61-.21-.864a1.54 1.54 0 0 0-.596-.603c-.258-.148-.567-.222-.926-.222-.365 0-.684.076-.959.229a1.577 1.577 0 0 0-.641.628c-.153.267-.229.58-.229.939l-.006.013-1.092-.006-.012-.007a2.73 2.73 0 0 1 .393-1.44 2.671 2.671 0 0 1 1.067-.991c.452-.241.97-.361 1.555-.361.533 0 1.013.112 1.44.336.428.22.764.523 1.01.908.25.385.374.825.374 1.32v.013c0 .347-.061.681-.184 1.003-.118.321-.33.679-.634 1.072-.305.39-.735.87-1.29 1.441l-2.367 2.444.286-.527v.527l-.28-.19h4.622V294h-5.929Zm10.912.216c-.677 0-1.257-.195-1.74-.584-.478-.389-.846-.942-1.104-1.657-.258-.719-.387-1.57-.387-2.552v-.012c0-.982.129-1.831.387-2.546.258-.715.626-1.267 1.104-1.657.483-.389 1.063-.583 1.74-.583s1.256.194 1.739.583c.482.39.853.942 1.11 1.657.263.715.394 1.564.394 2.546v.012c0 .982-.13 1.833-.393 2.552-.258.715-.629 1.268-1.111 1.657-.483.389-1.062.584-1.74.584Zm0-.997c.44 0 .814-.154 1.123-.463.313-.309.552-.747.717-1.314.17-.567.254-1.24.254-2.019v-.012c0-.779-.084-1.45-.254-2.013-.165-.567-.404-1.002-.717-1.307a1.53 1.53 0 0 0-1.123-.464c-.436 0-.81.155-1.124.464-.309.305-.546.74-.71 1.307-.166.563-.248 1.234-.248 2.013v.012c0 .779.082 1.452.247 2.019.165.567.402 1.005.711 1.314.313.309.688.463 1.124.463Zm5.122.781v-.787l3.098-3.352c.39-.423.694-.772.914-1.047.22-.279.374-.531.463-.755.09-.225.134-.47.134-.737v-.012c0-.322-.07-.61-.21-.864a1.541 1.541 0 0 0-.597-.603c-.258-.148-.567-.222-.926-.222a1.94 1.94 0 0 0-.959.229 1.578 1.578 0 0 0-.641.628c-.152.267-.228.58-.228.939l-.007.013-1.092-.006-.012-.007a2.731 2.731 0 0 1 .393-1.44 2.672 2.672 0 0 1 1.067-.991c.452-.241.97-.361 1.555-.361.533 0 1.013.112 1.44.336.428.22.765.523 1.01.908.25.385.374.825.374 1.32v.013c0 .347-.06.681-.184 1.003-.118.321-.33.679-.634 1.072-.305.39-.734.87-1.289 1.441l-2.368 2.444.286-.527v.527l-.28-.19h4.622V294h-5.929Zm11.838 0v-1.898h-4.462v-1.041c.25-.415.504-.834.762-1.257.258-.427.518-.853.78-1.276a175.829 175.829 0 0 1 1.594-2.507c.267-.406.529-.8.787-1.181h1.657v6.24h1.301v1.022h-1.301V294h-1.118Zm-3.294-2.914h3.3V285.9h-.075a229.259 229.259 0 0 0-1.295 1.981 143.675 143.675 0 0 0-1.314 2.101c-.212.347-.417.69-.616 1.028v.076Zm7.389-.26v-1.028h4.265v1.028H83.99Zm9.286 3.39c-.677 0-1.256-.195-1.739-.584-.478-.389-.846-.942-1.104-1.657-.258-.719-.388-1.57-.388-2.552v-.012c0-.982.13-1.831.388-2.546.258-.715.626-1.267 1.104-1.657.483-.389 1.062-.583 1.74-.583.677 0 1.256.194 1.739.583.482.39.852.942 1.11 1.657.263.715.394 1.564.394 2.546v.012c0 .982-.131 1.833-.394 2.552-.258.715-.628 1.268-1.11 1.657-.483.389-1.063.584-1.74.584Zm0-.997c.44 0 .815-.154 1.124-.463.313-.309.552-.747.717-1.314.17-.567.254-1.24.254-2.019v-.012c0-.779-.085-1.45-.254-2.013-.165-.567-.404-1.002-.717-1.307a1.53 1.53 0 0 0-1.124-.464c-.436 0-.81.155-1.123.464-.31.305-.546.74-.711 1.307-.165.563-.248 1.234-.248 2.013v.012c0 .779.083 1.452.248 2.019.165.567.402 1.005.71 1.314.314.309.689.463 1.124.463Zm8.132.997c-.567 0-1.073-.112-1.517-.337a2.86 2.86 0 0 1-1.073-.914 2.747 2.747 0 0 1-.47-1.314l-.006-.069h1.098l.006.05c.038.292.144.559.318.8.177.237.408.425.692.565.287.14.609.21.964.21a2.11 2.11 0 0 0 1.073-.267 1.93 1.93 0 0 0 .724-.749c.173-.317.26-.681.26-1.092v-.013c0-.406-.089-.766-.267-1.079a1.882 1.882 0 0 0-.717-.742 2.049 2.049 0 0 0-1.054-.267c-.304 0-.586.047-.844.14a1.97 1.97 0 0 0-.679.419 2.52 2.52 0 0 0-.229.247 2.272 2.272 0 0 0-.19.299h-.99l.482-5.263h5.097v1.022H99.89l-.311 3.098h.101c.136-.207.303-.381.502-.521.199-.139.421-.245.666-.317a2.69 2.69 0 0 1 .787-.114c.576 0 1.086.133 1.53.4.444.262.793.624 1.047 1.085.254.457.381.982.381 1.574v.013c0 .614-.137 1.157-.412 1.631-.271.47-.646.838-1.124 1.105-.478.267-1.028.4-1.65.4Zm4.938-3.39v-1.028h4.266v1.028h-4.266Zm6.221 3.174v-.787l3.098-3.352c.389-.423.694-.772.914-1.047.22-.279.374-.531.463-.755.089-.225.133-.47.133-.737v-.012c0-.322-.07-.61-.209-.864a1.545 1.545 0 0 0-.597-.603c-.258-.148-.567-.222-.927-.222-.364 0-.683.076-.958.229a1.576 1.576 0 0 0-.641.628c-.153.267-.229.58-.229.939l-.006.013-1.092-.006-.013-.007a2.74 2.74 0 0 1 .394-1.44 2.675 2.675 0 0 1 1.066-.991c.453-.241.972-.361 1.556-.361.533 0 1.013.112 1.44.336.428.22.764.523 1.01.908.249.385.374.825.374 1.32v.013c0 .347-.061.681-.184 1.003-.118.321-.33.679-.635 1.072-.304.39-.734.87-1.288 1.441l-2.368 2.444.286-.527v.527l-.279-.19h4.621V294h-5.929Zm11.838 0v-1.898h-4.462v-1.041c.25-.415.503-.834.762-1.257.258-.427.518-.853.78-1.276a219.306 219.306 0 0 1 1.594-2.507c.266-.406.529-.8.787-1.181h1.656v6.24h1.302v1.022h-1.302V294h-1.117Zm-3.294-2.914h3.301V285.9h-.077a191.694 191.694 0 0 0-1.294 1.981 171.437 171.437 0 0 0-1.314 2.101c-.212.347-.417.69-.616 1.028v.076Zm9.813 2.914v-8.131h-2.951v-1.029h7.046v1.029h-2.952V294h-1.143Zm7.954 0v-7.89h-.102l-2.329 1.688v-1.206l2.437-1.752h1.137V294h-1.143Zm6.855.216c-.677 0-1.256-.195-1.739-.584-.478-.389-.846-.942-1.104-1.657-.258-.719-.388-1.57-.388-2.552v-.012c0-.982.13-1.831.388-2.546.258-.715.626-1.267 1.104-1.657.483-.389 1.062-.583 1.739-.583.678 0 1.257.194 1.74.583.482.39.852.942 1.111 1.657.262.715.393 1.564.393 2.546v.012c0 .982-.131 1.833-.393 2.552-.259.715-.629 1.268-1.111 1.657-.483.389-1.062.584-1.74.584Zm0-.997a1.53 1.53 0 0 0 1.124-.463c.313-.309.552-.747.717-1.314.17-.567.254-1.24.254-2.019v-.012c0-.779-.084-1.45-.254-2.013-.165-.567-.404-1.002-.717-1.307a1.53 1.53 0 0 0-1.124-.464c-.435 0-.81.155-1.123.464-.309.305-.546.74-.711 1.307-.165.563-.248 1.234-.248 2.013v.012c0 .779.083 1.452.248 2.019.165.567.402 1.005.711 1.314.313.309.688.463 1.123.463Zm6.031-.52a.811.811 0 0 1-.584-.241.81.81 0 0 1-.241-.584c0-.229.08-.424.241-.584a.808.808 0 0 1 .584-.242c.228 0 .423.081.584.242.16.16.241.355.241.584a.814.814 0 0 1-.241.584.8.8 0 0 1-.584.241Zm0-4.913a.808.808 0 0 1-.584-.242.807.807 0 0 1-.241-.584c0-.228.08-.423.241-.584a.811.811 0 0 1 .584-.241.8.8 0 0 1 .584.241.8.8 0 0 1 .241.584.811.811 0 0 1-.241.584.797.797 0 0 1-.584.242Zm5.192 6.214v-7.89h-.101l-2.33 1.688v-1.206l2.437-1.752h1.137V294h-1.143Zm6.786-9.375c.419 0 .831.08 1.238.241.41.161.78.421 1.11.78.335.36.601.836.8 1.429.199.588.299 1.314.299 2.177v.013c0 1.041-.14 1.931-.419 2.672-.28.736-.682 1.301-1.207 1.695-.524.389-1.157.584-1.897.584-.512 0-.976-.093-1.391-.279a2.854 2.854 0 0 1-1.028-.794 2.898 2.898 0 0 1-.571-1.181l-.019-.082h1.149l.025.07c.093.254.224.474.394.66.173.186.38.33.622.432.245.101.522.152.831.152.555 0 1.005-.161 1.352-.483.347-.325.605-.757.775-1.294a6.574 6.574 0 0 0 .285-1.759 2.02 2.02 0 0 0 .007-.171v-.172l-.273-1.523c0-.402-.093-.766-.28-1.092a2.066 2.066 0 0 0-.742-.774 1.921 1.921 0 0 0-1.048-.292c-.38 0-.727.095-1.041.285a2.105 2.105 0 0 0-1.028 1.835v.013c0 .406.089.768.267 1.085.177.313.421.561.73.743.309.177.66.266 1.053.266a2.13 2.13 0 0 0 1.067-.266c.313-.178.56-.421.742-.73a2.04 2.04 0 0 0 .28-1.067v-.006h.374v1.65h-.222a2.16 2.16 0 0 1-.508.699 2.548 2.548 0 0 1-.825.52 2.91 2.91 0 0 1-1.104.197 2.968 2.968 0 0 1-1.537-.4 2.926 2.926 0 0 1-1.072-1.092 3.141 3.141 0 0 1-.394-1.574v-.013c0-.609.138-1.151.413-1.625.279-.478.66-.852 1.142-1.123a3.336 3.336 0 0 1 1.651-.406Zm6.189 8.074a.811.811 0 0 1-.584-.241.811.811 0 0 1-.242-.584c0-.229.081-.424.242-.584a.808.808 0 0 1 .584-.242c.228 0 .423.081.584.242.16.16.241.355.241.584a.814.814 0 0 1-.241.584.8.8 0 0 1-.584.241Zm0-4.913a.808.808 0 0 1-.584-.242.808.808 0 0 1-.242-.584c0-.228.081-.423.242-.584a.811.811 0 0 1 .584-.241.8.8 0 0 1 .584.241.8.8 0 0 1 .241.584.811.811 0 0 1-.241.584.797.797 0 0 1-.584.242Zm5.192 6.214v-7.89h-.101l-2.33 1.688v-1.206l2.437-1.752h1.137V294h-1.143Zm6.798.216c-.567 0-1.072-.112-1.517-.337a2.854 2.854 0 0 1-1.072-.914 2.738 2.738 0 0 1-.47-1.314l-.007-.069h1.099l.006.05c.038.292.144.559.317.8.178.237.409.425.692.565.288.14.61.21.965.21.406 0 .764-.089 1.073-.267.309-.182.55-.432.723-.749.174-.317.261-.681.261-1.092v-.013c0-.406-.089-.766-.267-1.079a1.882 1.882 0 0 0-.717-.742 2.051 2.051 0 0 0-1.054-.267 2.47 2.47 0 0 0-.844.14 1.97 1.97 0 0 0-.679.419 2.452 2.452 0 0 0-.229.247 2.22 2.22 0 0 0-.19.299h-.99l.482-5.263h5.097v1.022h-4.196l-.311 3.098h.102c.135-.207.302-.381.501-.521.199-.139.421-.245.667-.317.249-.076.512-.114.787-.114.575 0 1.085.133 1.53.4.444.262.793.624 1.047 1.085.254.457.381.982.381 1.574v.013c0 .614-.138 1.157-.413 1.631-.27.47-.645.838-1.123 1.105s-1.029.4-1.651.4Zm5.491-.153a.809.809 0 0 1-.584-.241.807.807 0 0 1-.241-.584c0-.228.08-.423.241-.584a.809.809 0 0 1 .584-.241c.229 0 .423.08.584.241a.796.796 0 0 1 .241.584c0 .225-.08.419-.241.584a.794.794 0 0 1-.584.241Zm5.44-9.438c.419 0 .832.08 1.238.241.41.161.781.421 1.111.78.334.36.601.836.8 1.429.198.588.298 1.314.298 2.177v.013c0 1.041-.14 1.931-.419 2.672-.279.736-.681 1.301-1.206 1.695-.525.389-1.158.584-1.898.584-.512 0-.976-.093-1.39-.279a2.858 2.858 0 0 1-1.029-.794 2.898 2.898 0 0 1-.571-1.181l-.019-.082h1.149l.025.07c.094.254.225.474.394.66.173.186.381.33.622.432.245.101.523.152.832.152.554 0 1.005-.161 1.352-.483.347-.325.605-.757.774-1.294a6.573 6.573 0 0 0 .286-1.759 2.53 2.53 0 0 0 .006-.171v-.172l-.273-1.523c0-.402-.093-.766-.279-1.092a2.069 2.069 0 0 0-.743-.774 1.92 1.92 0 0 0-1.047-.292c-.381 0-.728.095-1.041.285a2.097 2.097 0 0 0-.749.762c-.186.318-.28.675-.28 1.073v.013c0 .406.089.768.267 1.085.178.313.421.561.73.743.309.177.66.266 1.054.266.398 0 .753-.089 1.066-.266.313-.178.561-.421.743-.73a2.05 2.05 0 0 0 .279-1.067v-.006h.375v1.65h-.223c-.11.25-.279.483-.507.699-.225.215-.5.389-.826.52a2.903 2.903 0 0 1-1.104.197 2.967 2.967 0 0 1-1.536-.4 2.921 2.921 0 0 1-1.073-1.092 3.151 3.151 0 0 1-.393-1.574v-.013c0-.609.137-1.151.412-1.625a3 3 0 0 1 1.143-1.123c.486-.271 1.036-.406 1.65-.406Zm7.522 9.375v-7.89h-.102l-2.329 1.688v-1.206l2.437-1.752h1.137V294h-1.143Zm6.919.152c-.647 0-1.221-.112-1.72-.336-.5-.224-.893-.533-1.181-.927a2.297 2.297 0 0 1-.425-1.365v-.012c0-.377.082-.726.247-1.048.165-.321.396-.594.692-.818a2.605 2.605 0 0 1 1.029-.477v-.025c-.5-.157-.898-.415-1.194-.774a1.93 1.93 0 0 1-.444-1.264v-.012c0-.462.129-.872.387-1.232a2.605 2.605 0 0 1 1.067-.857c.452-.211.966-.317 1.542-.317.58 0 1.094.106 1.542.317.453.208.809.493 1.067.857.258.36.387.77.387 1.232v.012c0 .483-.148.904-.444 1.264-.292.359-.69.617-1.194.774v.025c.394.089.737.248 1.029.477.296.224.527.497.692.818.165.322.247.671.247 1.048v.012c0 .512-.142.967-.425 1.365-.284.394-.677.703-1.181.927-.499.224-1.073.336-1.72.336Zm0-.996c.423 0 .796-.072 1.117-.216.326-.148.582-.349.768-.603.186-.258.28-.552.28-.882v-.013c0-.334-.094-.631-.28-.889a1.838 1.838 0 0 0-.761-.609 2.694 2.694 0 0 0-1.124-.222c-.423 0-.798.074-1.124.222a1.893 1.893 0 0 0-.768.609 1.505 1.505 0 0 0-.273.889v.013c0 .33.094.624.28.882.186.254.442.455.768.603.326.144.698.216 1.117.216Zm0-4.437c.368 0 .692-.064.971-.191.279-.131.497-.311.654-.539.157-.229.235-.491.235-.787v-.013c0-.296-.078-.559-.235-.787a1.548 1.548 0 0 0-.654-.533 2.248 2.248 0 0 0-.971-.197c-.368 0-.692.065-.971.197a1.548 1.548 0 0 0-.654.533 1.355 1.355 0 0 0-.235.787v.013c0 .296.078.558.235.787.157.228.375.408.654.539.279.127.603.191.971.191Zm5.065 5.281v-.812l5.186-7.218v-.101h-5.008v-1.029h6.487v.813l-5.16 7.217v.102h5.268V294h-6.773Z"/>
      <path fill="color(display-p3 .6039 .8039 .7961)" d="M55.132 319.462c-.565 0-.984-.393-.984-.939 0-.552.42-.946.984-.946.572 0 .984.394.984.946 0 .546-.412.939-.984.939Zm2.92 8.538h-5.808v-1.028h2.33v-4.863h-2.28v-1.028h3.524v5.891h2.234V328Zm7.985-5.173V328H64.92v-4.78c0-.742-.292-1.142-.812-1.142-.546 0-.889.469-.889 1.231V328h-1.11v-4.786c0-.743-.286-1.136-.813-1.136-.559 0-.908.469-.908 1.231V328h-1.117v-6.919h1.123v1.003h.14c.165-.717.654-1.136 1.314-1.136.648 0 1.098.406 1.244 1.111h.14c.165-.686.698-1.111 1.384-1.111.933 0 1.421.654 1.421 1.879Zm3.485 5.287c-1.32 0-2.196-.831-2.196-2.082 0-1.231.889-1.955 2.501-2.05l1.815-.095v-.61c0-.793-.495-1.237-1.383-1.237-.737 0-1.264.317-1.429.863h-1.244c.127-1.143 1.213-1.917 2.698-1.917 1.67 0 2.622.838 2.622 2.291v4.729h-1.213v-1.009h-.12c-.33.711-1.073 1.117-2.05 1.117Zm.394-1.06c.99 0 1.726-.654 1.726-1.536v-.73l-1.644.083c-.92.05-1.403.431-1.403 1.104 0 .667.508 1.079 1.32 1.079Zm7.814 3.542c-1.663 0-2.768-.717-2.901-1.885h1.257c.133.539.787.889 1.663.889 1.142 0 1.77-.572 1.77-1.613v-1.155h-.12c-.273.743-1.054 1.206-2.07 1.206-1.592 0-2.62-1.142-2.62-2.945v-1.181c0-1.809 1.034-2.945 2.665-2.945 1.003 0 1.765.457 2.044 1.212h.12v-1.098h1.258v6.913c0 1.625-1.15 2.602-3.066 2.602Zm-1.727-5.624c0 1.181.686 1.943 1.758 1.943 1.067 0 1.759-.762 1.759-1.943v-.958c0-1.187-.692-1.943-1.759-1.943-1.072 0-1.758.762-1.758 1.943v.958Zm11.318 1.2h1.219c-.184 1.161-1.327 1.961-2.819 1.961-1.942 0-3.053-1.142-3.053-3.11v-1.054c0-1.822 1.187-3.021 2.983-3.021 1.81 0 2.908 1.193 2.908 3.161v.749h-4.64v.311c0 1.168.704 1.917 1.796 1.917.819 0 1.434-.349 1.606-.914Zm-1.682-4.183c-1.073 0-1.72.736-1.72 1.974h3.39c0-1.232-.623-1.974-1.67-1.974Z"/>
      <path fill="#fff" d="M52.054 350v-6.843h1.104V350h-1.104Zm.558-8.163a.748.748 0 0 1-.54-.222.749.749 0 0 1-.221-.54c0-.211.074-.391.222-.539a.75.75 0 0 1 .54-.223c.21 0 .39.075.539.223a.734.734 0 0 1 .222.539.75.75 0 0 1-.222.54.735.735 0 0 1-.54.222ZM55.24 350v-6.843h1.105v1.041h.101c.153-.368.385-.654.699-.857.317-.203.7-.304 1.148-.304.31 0 .587.05.832.152s.457.243.635.425c.178.178.32.385.425.622h.102a2.202 2.202 0 0 1 1.212-1.047 2.52 2.52 0 0 1 .882-.152c.466 0 .86.086 1.181.26.326.173.573.427.743.762.169.33.254.734.254 1.212V350h-1.105v-4.475c0-.339-.053-.618-.159-.838a1.023 1.023 0 0 0-.47-.501c-.21-.115-.478-.172-.8-.172a1.57 1.57 0 0 0-.83.216 1.505 1.505 0 0 0-.553.578 1.609 1.609 0 0 0-.197.793V350h-1.104v-4.646c0-.271-.06-.506-.178-.705a1.157 1.157 0 0 0-.495-.47 1.603 1.603 0 0 0-.75-.165c-.295 0-.564.078-.805.235a1.677 1.677 0 0 0-.565.635 1.878 1.878 0 0 0-.203.876V350H55.24Zm13.19.121c-.431 0-.82-.083-1.167-.248a2.01 2.01 0 0 1-.82-.705c-.198-.304-.297-.664-.297-1.079v-.012c0-.407.097-.754.291-1.041.195-.292.479-.521.851-.686.373-.165.823-.262 1.352-.292l2.514-.152v.882l-2.38.152c-.521.03-.902.138-1.143.324-.237.186-.356.449-.356.787v.013c0 .347.132.618.394.812.262.191.592.286.99.286.377 0 .711-.074 1.003-.222a1.76 1.76 0 0 0 .686-.616c.169-.258.254-.55.254-.876v-2.133c0-.423-.13-.744-.388-.964-.254-.225-.636-.337-1.149-.337-.41 0-.746.074-1.009.222a1.074 1.074 0 0 0-.527.616l-.006.019h-1.105l.007-.038c.059-.36.207-.673.444-.939.241-.271.552-.481.933-.629a3.49 3.49 0 0 1 1.301-.228c.56 0 1.031.091 1.416.273.39.182.683.444.882.787.204.338.305.744.305 1.218V350h-1.104v-1.009H70.5c-.144.241-.32.446-.527.615-.203.17-.434.299-.692.388a2.735 2.735 0 0 1-.85.127Zm8.113 2.291c-.55 0-1.03-.078-1.44-.235-.411-.152-.74-.37-.985-.654a1.928 1.928 0 0 1-.45-.977l.012-.006h1.143l.006.006c.06.258.237.47.533.635.297.169.69.254 1.181.254.614 0 1.092-.14 1.434-.419.347-.275.521-.665.521-1.168v-1.384h-.102a2.326 2.326 0 0 1-1.269 1.047 2.79 2.79 0 0 1-.876.134c-.588 0-1.098-.14-1.53-.419a2.795 2.795 0 0 1-.99-1.168c-.233-.496-.35-1.063-.35-1.702v-.012c0-.639.117-1.206.35-1.701a2.81 2.81 0 0 1 1.003-1.175c.431-.287.946-.431 1.542-.431.322 0 .618.05.889.152.27.102.51.245.717.432.212.186.387.408.527.666h.076v-1.13h1.105v6.748c0 .508-.125.95-.375 1.326-.245.377-.596.667-1.053.87-.457.207-.997.311-1.619.311Zm-.05-3.745c.422 0 .784-.097 1.085-.292.304-.199.537-.472.698-.819.165-.347.247-.747.247-1.2v-.012c0-.453-.082-.855-.247-1.206a1.907 1.907 0 0 0-.698-.826c-.3-.198-.663-.298-1.086-.298-.423 0-.783.1-1.079.298a1.914 1.914 0 0 0-.673.826 3.004 3.004 0 0 0-.228 1.206v.012c0 .453.076.853.228 1.2.157.347.381.62.673.819.296.195.656.292 1.08.292Zm7.947 1.454c-.652 0-1.213-.144-1.683-.432a2.858 2.858 0 0 1-1.079-1.219c-.25-.529-.374-1.151-.374-1.866v-.006c0-.707.124-1.327.374-1.86.254-.533.612-.95 1.073-1.251.461-.3 1-.45 1.619-.45.622 0 1.155.144 1.6.431.448.288.79.69 1.028 1.206.24.512.361 1.109.361 1.79v.432h-5.484v-.882h4.92l-.546.806v-.438c0-.538-.08-.98-.242-1.327-.16-.347-.383-.605-.666-.774a1.83 1.83 0 0 0-.978-.26c-.368 0-.698.09-.99.272a1.845 1.845 0 0 0-.686.794c-.169.351-.253.783-.253 1.295v.438c0 .486.082.903.247 1.25.165.343.4.608.705.794.304.182.664.273 1.079.273.309 0 .578-.043.806-.127a1.78 1.78 0 0 0 .565-.324c.148-.131.252-.264.311-.4l.025-.057h1.105l-.013.051c-.06.233-.165.459-.317.679-.148.216-.34.413-.578.59a2.962 2.962 0 0 1-.844.419 3.583 3.583 0 0 1-1.086.153Zm6.982 0c-.508 0-.956-.077-1.346-.229a2.346 2.346 0 0 1-.94-.654 1.817 1.817 0 0 1-.412-.984h1.13c.093.284.275.512.546.686.27.173.624.26 1.06.26.309 0 .58-.044.813-.133.236-.093.423-.218.558-.375a.832.832 0 0 0 .203-.552v-.013a.752.752 0 0 0-.28-.59c-.185-.165-.49-.298-.913-.4l-1.06-.254c-.428-.101-.779-.232-1.054-.393a1.633 1.633 0 0 1-.61-.603 1.754 1.754 0 0 1-.196-.851v-.006c0-.381.11-.722.33-1.022.224-.301.529-.538.914-.711.385-.174.819-.26 1.301-.26.479 0 .902.076 1.27.228.372.148.67.36.895.635.228.275.368.599.419.971h-1.086a1.119 1.119 0 0 0-.495-.66c-.258-.169-.594-.254-1.009-.254-.27 0-.512.044-.724.133a1.197 1.197 0 0 0-.501.356.823.823 0 0 0-.184.533v.013c0 .152.04.287.12.406.08.118.206.222.375.311.17.089.387.167.654.235l1.053.254c.644.156 1.122.381 1.435.673.317.292.476.683.476 1.174v.013c0 .406-.12.766-.362 1.079-.241.309-.569.55-.984.723-.41.174-.876.261-1.396.261Zm7.382-9.681-2.894 11.845h-1.06l2.894-11.845h1.06Zm4.437 9.681a2.6 2.6 0 0 1-.882-.146 2.364 2.364 0 0 1-.724-.413 2.36 2.36 0 0 1-.527-.654h-.101V350h-1.105v-9.56h1.105v3.796h.101c.127-.245.297-.457.508-.634.216-.178.461-.316.737-.413.279-.102.575-.152.888-.152.58 0 1.084.146 1.511.438.432.292.766.702 1.003 1.231.237.529.355 1.151.355 1.866v.013c0 .711-.118 1.333-.355 1.866-.237.529-.571.94-1.003 1.232-.427.292-.931.438-1.511.438Zm-.254-.978c.419 0 .777-.101 1.073-.305a1.94 1.94 0 0 0 .679-.882c.161-.385.241-.842.241-1.371v-.013c0-.533-.08-.99-.241-1.371-.156-.381-.383-.673-.679-.876-.296-.207-.654-.311-1.073-.311-.414 0-.772.104-1.072.311a1.966 1.966 0 0 0-.692.883c-.161.38-.242.835-.242 1.364v.013c0 .525.081.98.242 1.365.16.381.391.675.692.882.3.207.658.311 1.072.311Zm7.63.978c-.652 0-1.212-.144-1.682-.432a2.862 2.862 0 0 1-1.079-1.219c-.25-.529-.375-1.151-.375-1.866v-.006c0-.707.125-1.327.375-1.86.254-.533.611-.95 1.073-1.251.461-.3 1.001-.45 1.618-.45.622 0 1.156.144 1.6.431.449.288.791.69 1.028 1.206.242.512.362 1.109.362 1.79v.432h-5.484v-.882h4.919l-.546.806v-.438c0-.538-.08-.98-.241-1.327-.161-.347-.383-.605-.666-.774a1.833 1.833 0 0 0-.978-.26c-.368 0-.698.09-.99.272-.288.178-.516.443-.686.794-.169.351-.254.783-.254 1.295v.438c0 .486.083.903.248 1.25.165.343.4.608.704.794.305.182.665.273 1.08.273.308 0 .577-.043.806-.127.228-.085.417-.193.565-.324.148-.131.251-.264.311-.4l.025-.057h1.105l-.013.051a2.1 2.1 0 0 1-.317.679 2.537 2.537 0 0 1-.578.59 2.973 2.973 0 0 1-.844.419 3.589 3.589 0 0 1-1.086.153Zm4.634-.121v-6.843h1.104v1.029h.102c.174-.364.423-.646.749-.845.326-.203.741-.304 1.244-.304.77 0 1.361.22 1.771.66.415.436.622 1.06.622 1.872V350h-1.104v-4.164c0-.618-.131-1.075-.394-1.371-.258-.301-.66-.451-1.206-.451-.364 0-.679.078-.946.235a1.611 1.611 0 0 0-.622.667c-.144.287-.216.632-.216 1.034V350h-1.104Zm10.023.051c-.703 0-1.212-.142-1.53-.426-.313-.283-.47-.751-.47-1.402v-4.152h-1.079v-.914h1.079v-1.771h1.143v1.771h1.498v.914h-1.498v3.872c0 .402.076.692.229.87.152.173.406.26.761.26.098 0 .18-.002.248-.006.072-.004.158-.011.26-.019v.939a8.947 8.947 0 0 1-.317.045 2.877 2.877 0 0 1-.324.019Zm5.015.07c-.648 0-1.209-.142-1.683-.426a2.875 2.875 0 0 1-1.091-1.225c-.254-.529-.381-1.157-.381-1.885v-.013c0-.732.127-1.362.381-1.891a2.836 2.836 0 0 1 1.091-1.219c.474-.284 1.035-.425 1.683-.425.651 0 1.212.141 1.682.425.469.283.831.69 1.085 1.219.258.529.387 1.159.387 1.891v.013c0 .728-.129 1.356-.387 1.885a2.837 2.837 0 0 1-1.085 1.225c-.47.284-1.031.426-1.682.426Zm0-.978c.431 0 .797-.101 1.098-.305.3-.203.529-.495.685-.876.161-.38.241-.84.241-1.377v-.013c0-.541-.08-1.003-.241-1.384-.156-.38-.385-.67-.685-.869-.301-.203-.667-.305-1.098-.305-.432 0-.798.102-1.099.305-.3.199-.531.489-.691.869-.157.381-.235.843-.235 1.384v.013c0 .537.078.997.235 1.377.16.381.391.673.691.876.301.204.667.305 1.099.305Zm4.773-2.317v-1.028h4.266v1.028h-4.266Zm9.045 5.586c-.55 0-1.03-.078-1.44-.235-.411-.152-.739-.37-.984-.654a1.92 1.92 0 0 1-.451-.977l.013-.006h1.142l.007.006c.059.258.237.47.533.635.296.169.69.254 1.18.254.614 0 1.092-.14 1.435-.419.347-.275.52-.665.52-1.168v-1.384h-.101a2.327 2.327 0 0 1-1.27 1.047c-.27.089-.562.134-.876.134-.588 0-1.098-.14-1.529-.419a2.795 2.795 0 0 1-.991-1.168c-.232-.496-.349-1.063-.349-1.702v-.012c0-.639.117-1.206.349-1.701.237-.5.572-.891 1.003-1.175.432-.287.946-.431 1.543-.431.321 0 .618.05.888.152.271.102.51.245.718.432.211.186.387.408.527.666h.076v-1.13h1.104v6.748c0 .508-.125.95-.374 1.326-.246.377-.597.667-1.054.87-.457.207-.997.311-1.619.311Zm-.05-3.745c.423 0 .785-.097 1.085-.292.305-.199.538-.472.698-.819.165-.347.248-.747.248-1.2v-.012c0-.453-.083-.855-.248-1.206a1.9 1.9 0 0 0-.698-.826c-.3-.198-.662-.298-1.085-.298-.424 0-.783.1-1.079.298a1.91 1.91 0 0 0-.673.826 2.992 2.992 0 0 0-.229 1.206v.012c0 .453.076.853.229 1.2.156.347.381.62.673.819.296.195.655.292 1.079.292Zm5.154 1.333v-6.843h1.104v1.016h.102a1.62 1.62 0 0 1 .666-.838c.314-.199.701-.298 1.162-.298.106 0 .21.006.311.019.106.008.186.017.241.025v1.073a3.373 3.373 0 0 0-.336-.045 3.043 3.043 0 0 0-.343-.019c-.351 0-.662.07-.933.21a1.608 1.608 0 0 0-.641.584 1.648 1.648 0 0 0-.229.876V350h-1.104Zm4.977 0v-6.843h1.104V350h-1.104Zm.558-8.163a.747.747 0 0 1-.539-.222.747.747 0 0 1-.223-.54c0-.211.074-.391.223-.539a.748.748 0 0 1 .539-.223c.212 0 .392.075.54.223a.734.734 0 0 1 .222.539.75.75 0 0 1-.222.54.735.735 0 0 1-.54.222Zm5.154 8.284c-.575 0-1.079-.146-1.51-.438-.432-.292-.766-.703-1.003-1.232-.237-.533-.356-1.155-.356-1.866v-.013c0-.715.119-1.337.356-1.866.237-.529.569-.939.996-1.231.432-.292.938-.438 1.517-.438.314 0 .608.05.883.152.279.097.527.235.742.413.216.177.385.389.508.634h.102v-3.796h1.104V350h-1.104v-1.092h-.102a2.324 2.324 0 0 1-.527.654 2.347 2.347 0 0 1-.723.413 2.6 2.6 0 0 1-.883.146Zm.254-.978c.415 0 .773-.104 1.073-.311.301-.207.531-.501.692-.882.161-.385.241-.84.241-1.365v-.013c0-.529-.08-.984-.241-1.364a1.973 1.973 0 0 0-.692-.883c-.3-.207-.658-.311-1.073-.311-.414 0-.772.104-1.072.311-.297.203-.525.495-.686.876-.157.381-.235.838-.235 1.371v.013c0 .529.078.986.235 1.371.161.381.389.675.686.882.3.204.658.305 1.072.305Zm5.11-2.317v-1.028h4.266v1.028h-4.266Zm6.43 3.174v-5.929h-1.136v-.914h1.136v-.761c0-.458.074-.834.223-1.13.152-.301.376-.523.672-.667.297-.148.661-.222 1.092-.222.136 0 .263.006.381.019.123.008.241.023.355.044v.883a1.794 1.794 0 0 0-.234-.026 6.234 6.234 0 0 0-.28-.006c-.393 0-.677.095-.85.286-.17.19-.254.474-.254.85v.73h1.555v.914h-1.555V350h-1.105Zm6.767.121c-.652 0-1.212-.144-1.682-.432a2.856 2.856 0 0 1-1.079-1.219c-.25-.529-.375-1.151-.375-1.866v-.006c0-.707.125-1.327.375-1.86.254-.533.611-.95 1.072-1.251.462-.3 1.001-.45 1.619-.45.622 0 1.155.144 1.6.431.448.288.791.69 1.028 1.206.241.512.362 1.109.362 1.79v.432h-5.485v-.882h4.92l-.546.806v-.438c0-.538-.08-.98-.241-1.327-.161-.347-.383-.605-.667-.774a1.827 1.827 0 0 0-.977-.26c-.368 0-.698.09-.99.272a1.842 1.842 0 0 0-.686.794c-.169.351-.254.783-.254 1.295v.438c0 .486.083.903.248 1.25.165.343.4.608.704.794.305.182.665.273 1.079.273.309 0 .578-.043.806-.127.229-.085.417-.193.565-.324.149-.131.252-.264.311-.4l.026-.057h1.104l-.012.051c-.06.233-.165.459-.318.679-.148.216-.34.413-.577.59a2.966 2.966 0 0 1-.845.419 3.577 3.577 0 0 1-1.085.153Zm6.513 0c-.432 0-.821-.083-1.168-.248a2.008 2.008 0 0 1-.819-.705c-.199-.304-.299-.664-.299-1.079v-.012c0-.407.098-.754.292-1.041.195-.292.479-.521.851-.686.372-.165.823-.262 1.352-.292l2.514-.152v.882l-2.381.152c-.52.03-.901.138-1.142.324-.237.186-.356.449-.356.787v.013c0 .347.132.618.394.812.262.191.592.286.99.286.377 0 .711-.074 1.003-.222a1.76 1.76 0 0 0 .686-.616c.169-.258.254-.55.254-.876v-2.133c0-.423-.13-.744-.388-.964-.254-.225-.637-.337-1.149-.337-.41 0-.747.074-1.009.222a1.076 1.076 0 0 0-.527.616l-.006.019h-1.105l.007-.038c.059-.36.207-.673.444-.939.241-.271.552-.481.933-.629a3.49 3.49 0 0 1 1.301-.228c.559 0 1.031.091 1.416.273.389.182.683.444.882.787.203.338.305.744.305 1.218V350h-1.104v-1.009h-.102c-.144.241-.32.446-.527.615-.203.17-.434.299-.692.388a2.731 2.731 0 0 1-.85.127Zm7.725-.07c-.703 0-1.213-.142-1.53-.426-.313-.283-.47-.751-.47-1.402v-4.152h-1.079v-.914h1.079v-1.771h1.143v1.771h1.498v.914h-1.498v3.872c0 .402.076.692.228.87.153.173.407.26.762.26.097 0 .18-.002.248-.006.072-.004.158-.011.26-.019v.939a8.682 8.682 0 0 1-.318.045 2.845 2.845 0 0 1-.323.019Zm4.583.07c-.517 0-.95-.098-1.302-.292a1.896 1.896 0 0 1-.793-.864c-.173-.381-.26-.84-.26-1.377v-4.431h1.104v4.164c0 .614.119 1.071.356 1.371.241.301.634.451 1.18.451.301 0 .565-.044.794-.133a1.56 1.56 0 0 0 .584-.381 1.61 1.61 0 0 0 .349-.609 2.58 2.58 0 0 0 .121-.813v-4.05h1.104V350h-1.104v-1.022h-.102c-.11.241-.26.449-.451.622-.19.169-.419.298-.685.387a2.783 2.783 0 0 1-.895.134Zm5.3-.121v-6.843h1.105v1.016h.101c.131-.36.353-.639.667-.838.313-.199.7-.298 1.161-.298.106 0 .21.006.311.019.106.008.186.017.241.025v1.073a3.373 3.373 0 0 0-.336-.045 3.043 3.043 0 0 0-.343-.019c-.351 0-.662.07-.933.21a1.608 1.608 0 0 0-.641.584 1.648 1.648 0 0 0-.228.876V350h-1.105Zm7.554.121c-.652 0-1.213-.144-1.682-.432a2.85 2.85 0 0 1-1.079-1.219c-.25-.529-.375-1.151-.375-1.866v-.006c0-.707.125-1.327.375-1.86.253-.533.611-.95 1.072-1.251.462-.3 1.001-.45 1.619-.45.622 0 1.155.144 1.6.431.448.288.791.69 1.028 1.206.241.512.362 1.109.362 1.79v.432h-5.485v-.882h4.92l-.546.806v-.438c0-.538-.081-.98-.241-1.327-.161-.347-.383-.605-.667-.774a1.827 1.827 0 0 0-.977-.26c-.369 0-.699.09-.991.272a1.847 1.847 0 0 0-.685.794c-.169.351-.254.783-.254 1.295v.438c0 .486.082.903.247 1.25.165.343.4.608.705.794.305.182.664.273 1.079.273.309 0 .578-.043.806-.127.229-.085.417-.193.565-.324.148-.131.252-.264.311-.4l.026-.057h1.104l-.013.051a2.1 2.1 0 0 1-.317.679 2.517 2.517 0 0 1-.578.59 2.96 2.96 0 0 1-.844.419 3.577 3.577 0 0 1-1.085.153Zm7.16 0c-.576 0-1.079-.146-1.511-.438-.431-.292-.766-.703-1.003-1.232-.237-.533-.355-1.155-.355-1.866v-.013c0-.715.118-1.337.355-1.866.237-.529.569-.939.997-1.231.431-.292.937-.438 1.517-.438.313 0 .607.05.882.152.28.097.527.235.743.413.216.177.385.389.508.634h.101v-3.796h1.105V350h-1.105v-1.092h-.101a2.36 2.36 0 0 1-.527.654 2.364 2.364 0 0 1-.724.413 2.6 2.6 0 0 1-.882.146Zm.254-.978c.415 0 .772-.104 1.073-.311.3-.207.531-.501.691-.882.161-.385.242-.84.242-1.365v-.013c0-.529-.081-.984-.242-1.364a1.97 1.97 0 0 0-.691-.883c-.301-.207-.658-.311-1.073-.311-.415 0-.772.104-1.073.311-.296.203-.525.495-.685.876-.157.381-.235.838-.235 1.371v.013c0 .529.078.986.235 1.371.16.381.389.675.685.882.301.204.658.305 1.073.305Zm5.11-2.317v-1.028h4.265v1.028h-4.265Zm6.252 3.174v-6.843h1.105V350h-1.105Zm.559-8.163a.748.748 0 0 1-.54-.222.75.75 0 0 1-.222-.54c0-.211.074-.391.222-.539a.749.749 0 0 1 .54-.223c.211 0 .391.075.539.223a.734.734 0 0 1 .222.539.75.75 0 0 1-.222.54.734.734 0 0 1-.539.222Zm2.628 8.163v-6.843h1.104v1.041h.102a1.82 1.82 0 0 1 .698-.857c.317-.203.7-.304 1.149-.304.309 0 .586.05.831.152.246.102.457.243.635.425.178.178.32.385.425.622h.102a2.205 2.205 0 0 1 1.212-1.047c.275-.102.57-.152.883-.152.465 0 .859.086 1.18.26.326.173.574.427.743.762.169.33.254.734.254 1.212V350h-1.105v-4.475c0-.339-.052-.618-.158-.838a1.024 1.024 0 0 0-.47-.501c-.212-.115-.478-.172-.8-.172a1.512 1.512 0 0 0-1.384.794 1.61 1.61 0 0 0-.196.793V350h-1.105v-4.646c0-.271-.059-.506-.178-.705a1.154 1.154 0 0 0-.495-.47 1.6 1.6 0 0 0-.749-.165c-.296 0-.565.078-.806.235a1.681 1.681 0 0 0-.565.635 1.884 1.884 0 0 0-.203.876V350h-1.104Zm13.19.121c-.432 0-.821-.083-1.168-.248a2.008 2.008 0 0 1-.819-.705c-.199-.304-.298-.664-.298-1.079v-.012c0-.407.097-.754.292-1.041.195-.292.478-.521.85-.686.373-.165.824-.262 1.353-.292l2.513-.152v.882l-2.38.152c-.521.03-.902.138-1.143.324-.237.186-.355.449-.355.787v.013c0 .347.131.618.393.812.263.191.593.286.991.286a2.19 2.19 0 0 0 1.003-.222c.291-.152.52-.358.685-.616.169-.258.254-.55.254-.876v-2.133c0-.423-.129-.744-.387-.964-.254-.225-.637-.337-1.149-.337-.411 0-.747.074-1.009.222a1.072 1.072 0 0 0-.527.616l-.007.019h-1.104l.006-.038c.059-.36.208-.673.445-.939.241-.271.552-.481.933-.629a3.486 3.486 0 0 1 1.301-.228c.559 0 1.03.091 1.415.273.39.182.684.444.883.787.203.338.304.744.304 1.218V350h-1.104v-1.009h-.102a2.305 2.305 0 0 1-1.218 1.003 2.738 2.738 0 0 1-.851.127Zm8.112 2.291c-.55 0-1.03-.078-1.441-.235-.41-.152-.738-.37-.983-.654a1.92 1.92 0 0 1-.451-.977l.013-.006h1.142l.007.006c.059.258.236.47.533.635.296.169.689.254 1.18.254.614 0 1.092-.14 1.435-.419.347-.275.52-.665.52-1.168v-1.384h-.101a2.327 2.327 0 0 1-1.27 1.047c-.27.089-.562.134-.876.134-.588 0-1.098-.14-1.529-.419a2.795 2.795 0 0 1-.991-1.168c-.232-.496-.349-1.063-.349-1.702v-.012c0-.639.117-1.206.349-1.701.237-.5.572-.891 1.003-1.175.432-.287.946-.431 1.543-.431.321 0 .618.05.888.152.271.102.51.245.718.432.211.186.387.408.527.666h.076v-1.13h1.104v6.748c0 .508-.125.95-.374 1.326-.246.377-.597.667-1.054.87-.457.207-.997.311-1.619.311Zm-.05-3.745c.423 0 .785-.097 1.085-.292.305-.199.537-.472.698-.819.165-.347.248-.747.248-1.2v-.012c0-.453-.083-.855-.248-1.206a1.906 1.906 0 0 0-.698-.826c-.3-.198-.662-.298-1.085-.298-.424 0-.783.1-1.08.298a1.907 1.907 0 0 0-.672.826 2.992 2.992 0 0 0-.229 1.206v.012c0 .453.076.853.229 1.2.156.347.38.62.672.819.297.195.656.292 1.08.292Zm7.947 1.454c-.652 0-1.213-.144-1.682-.432a2.856 2.856 0 0 1-1.079-1.219c-.25-.529-.375-1.151-.375-1.866v-.006c0-.707.125-1.327.375-1.86.254-.533.611-.95 1.072-1.251.462-.3 1.001-.45 1.619-.45.622 0 1.155.144 1.6.431.448.288.791.69 1.028 1.206.241.512.362 1.109.362 1.79v.432h-5.485v-.882h4.92l-.546.806v-.438c0-.538-.08-.98-.241-1.327-.161-.347-.383-.605-.667-.774a1.827 1.827 0 0 0-.977-.26c-.368 0-.699.09-.991.272a1.847 1.847 0 0 0-.685.794c-.169.351-.254.783-.254 1.295v.438c0 .486.083.903.248 1.25.165.343.399.608.704.794.305.182.665.273 1.079.273.309 0 .578-.043.806-.127.229-.085.417-.193.565-.324.148-.131.252-.264.311-.4l.026-.057h1.104l-.012.051c-.06.233-.165.459-.318.679-.148.216-.34.413-.577.59a2.966 2.966 0 0 1-.845.419 3.577 3.577 0 0 1-1.085.153Zm5.535-.058a.809.809 0 0 1-.584-.241.807.807 0 0 1-.241-.584c0-.228.08-.423.241-.584a.809.809 0 0 1 .584-.241c.229 0 .423.08.584.241a.796.796 0 0 1 .241.584c0 .225-.08.419-.241.584a.794.794 0 0 1-.584.241Zm5.307.058c-.508 0-.957-.077-1.346-.229a2.35 2.35 0 0 1-.94-.654 1.82 1.82 0 0 1-.412-.984h1.13c.093.284.275.512.546.686.271.173.624.26 1.06.26.309 0 .579-.044.812-.133.237-.093.423-.218.559-.375a.834.834 0 0 0 .203-.552v-.013a.752.752 0 0 0-.279-.59c-.187-.165-.491-.298-.914-.4l-1.06-.254c-.428-.101-.779-.232-1.054-.393a1.642 1.642 0 0 1-.61-.603 1.756 1.756 0 0 1-.196-.851v-.006c0-.381.11-.722.33-1.022.224-.301.529-.538.914-.711.385-.174.819-.26 1.301-.26.478 0 .901.076 1.27.228.372.148.67.36.895.635.228.275.368.599.419.971h-1.086a1.119 1.119 0 0 0-.495-.66c-.258-.169-.595-.254-1.009-.254-.271 0-.512.044-.724.133a1.195 1.195 0 0 0-.501.356.822.822 0 0 0-.184.533v.013c0 .152.04.287.12.406.081.118.205.222.375.311.169.089.387.167.653.235l1.054.254c.643.156 1.122.381 1.435.673.317.292.476.683.476 1.174v.013c0 .406-.121.766-.362 1.079-.241.309-.569.55-.984.723-.41.174-.876.261-1.396.261Zm6.201-.121-2.532-6.843h1.168l1.872 5.637h.102l1.872-5.637h1.168L279.458 350h-1.117Zm7.675 2.412c-.551 0-1.031-.078-1.441-.235-.411-.152-.739-.37-.984-.654a1.928 1.928 0 0 1-.451-.977l.013-.006h1.142l.007.006c.059.258.237.47.533.635.296.169.69.254 1.181.254.613 0 1.091-.14 1.434-.419.347-.275.521-.665.521-1.168v-1.384h-.102a2.34 2.34 0 0 1-.539.641c-.216.178-.46.313-.73.406a2.791 2.791 0 0 1-.876.134c-.589 0-1.099-.14-1.53-.419a2.786 2.786 0 0 1-.99-1.168c-.233-.496-.35-1.063-.35-1.702v-.012c0-.639.117-1.206.35-1.701a2.81 2.81 0 0 1 1.003-1.175c.431-.287.945-.431 1.542-.431.322 0 .618.05.889.152s.51.245.717.432c.212.186.387.408.527.666h.076v-1.13h1.104v6.748c0 .508-.124.95-.374 1.326-.245.377-.597.667-1.054.87-.457.207-.996.311-1.618.311Zm-.051-3.745c.423 0 .785-.097 1.085-.292.305-.199.538-.472.699-.819.165-.347.247-.747.247-1.2v-.012c0-.453-.082-.855-.247-1.206a1.908 1.908 0 0 0-.699-.826c-.3-.198-.662-.298-1.085-.298-.423 0-.783.1-1.079.298a1.91 1.91 0 0 0-.673.826 3.01 3.01 0 0 0-.229 1.206v.012c0 .453.077.853.229 1.2.156.347.381.62.673.819.296.195.656.292 1.079.292Z"/>
    </g>
  </g>
  <path fill="color(display-p3 .0941 .1412 .1451)" d="M432 376h2a2 2 0 0 0 2-2v-70a2 2 0 0 0-2-2h-2v74Z"/>
  <path fill="color(display-p3 .1569 .2353 .2431)" d="M431 304a1 1 0 0 1 1-1h1v72h-1a1 1 0 0 1-1-1v-70Z"/>
  <path fill="color(display-p3 .251 .3765 .3922)" d="M433 303h1a1 1 0 0 1 1 1v70a1 1 0 0 1-1 1h-1v-72Z"/>
  <path fill="color(display-p3 .1569 .2353 .2431)" d="M433 303h1a1 1 0 0 1 1 1v1h-2v-2Z"/>
  <path fill="color(display-p3 .0941 .1412 .1451)" d="M4 325H2a2 2 0 0 0-2 2v46a2 2 0 0 0 2 2h2v-50Z"/>
  <path fill="color(display-p3 .1569 .2353 .2431)" d="M5 327a1 1 0 0 0-1-1H3v48h1a1 1 0 0 0 1-1v-46Z"/>
  <path fill="color(display-p3 .251 .3765 .3922)" d="M3 326H2a1 1 0 0 0-1 1v46a1 1 0 0 0 1 1h1v-48Z"/>
  <path fill="color(display-p3 .1569 .2353 .2431)" d="M1 327a1 1 0 0 1 1-1h1v2H1v-1Z"/>
  <path fill="color(display-p3 .0941 .1412 .1451)" d="M4 249H2a2 2 0 0 0-2 2v46a2 2 0 0 0 2 2h2v-50Z"/>
  <path fill="color(display-p3 .1569 .2353 .2431)" d="M5 251a1 1 0 0 0-1-1H3v48h1a1 1 0 0 0 1-1v-46Z"/>
  <path fill="color(display-p3 .251 .3765 .3922)" d="M3 250H2a1 1 0 0 0-1 1v46a1 1 0 0 0 1 1h1v-48Z"/>
  <path fill="color(display-p3 .1569 .2353 .2431)" d="M1 296h2v2H2a1 1 0 0 1-1-1v-1Zm0-45a1 1 0 0 1 1-1h1v2H1v-1Z"/>
  <path fill="color(display-p3 .0941 .1412 .1451)" d="M4 185H2a2 2 0 0 0-2 2v34a2 2 0 0 0 2 2h2v-38Z"/>
  <path fill="color(display-p3 .1569 .2353 .2431)" d="M5 187a1 1 0 0 0-1-1H3v36h1a1 1 0 0 0 1-1v-34Z"/>
  <path fill="color(display-p3 .251 .3765 .3922)" d="M3 186H2a1 1 0 0 0-1 1v34a1 1 0 0 0 1 1h1v-36Z"/>
  <path fill="color(display-p3 .1569 .2353 .2431)" d="M1 220h2v2H2a1 1 0 0 1-1-1v-1Zm0-33a1 1 0 0 1 1-1h1v2H1v-1Zm2-91h8v8H3z"/>
  <path fill="color(display-p3 .0941 .1412 .1451)" d="M3 96h1v8H3z"/>
  <path fill="color(display-p3 .1569 .2353 .2431)" d="M314 0h8v8h-8zm111 96h8v8h-8z"/>
  <path fill="color(display-p3 .1294 .1294 .1294)" d="M182 9h72v1a2 2 0 0 1-2 2h-68a2 2 0 0 1-2-2V9Z"/>
  <path fill="#000" d="M183 8h70v2a1 1 0 0 1-1 1h-68a1 1 0 0 1-1-1V8Z"/>
  <path fill="color(display-p3 .0941 .1412 .1451)" d="M432 96h1v8h-1zM314 0h8v1h-8z"/>
  <defs>
    <clipPath id="a">
      <rect width="398" height="912" x="19" y="16" fill="#fff" rx="56"/>
    </clipPath>
    <clipPath id="b">
      <path fill="#fff" d="M19 16h398v968H19z"/>
    </clipPath>
    <linearGradient id="e" x1="261" x2="261" y1="40" y2="52" gradientUnits="userSpaceOnUse">
      <stop/>
      <stop offset="1" stop-color="color(display-p3 .1294 .1294 .1294)"/>
    </linearGradient>
    <filter id="c" width="498" height="198" x="-31" y="-34" color-interpolation-filters="sRGB" filterUnits="userSpaceOnUse">
      <feFlood flood-opacity="0" result="BackgroundImageFix"/>
      <feGaussianBlur in="BackgroundImageFix" stdDeviation="25"/>
      <feComposite in2="SourceAlpha" operator="in" result="effect1_backgroundBlur_112_9465"/>
      <feBlend in="SourceGraphic" in2="effect1_backgroundBlur_112_9465" result="shape"/>
    </filter>
  </defs>
</svg>
