<svg xmlns="http://www.w3.org/2000/svg" width="232" height="342" fill="none" viewBox="0 0 232 342">
  <g filter="url(#a)">
    <rect width="216" height="314" x="8" y="-28" fill="color(display-p3 .1255 .1882 .1961)" fill-opacity=".9" rx="12"/>
    <rect width="217" height="315" x="7.5" y="-28.5" stroke="color(display-p3 .2 .302 .3137)" stroke-opacity=".6" rx="12.5"/>
    <path fill="color(display-p3 .6039 .8039 .7961)" d="M31.128-2h-1.307v-4.082h-3.606V-2h-1.307v-9.16h1.307v3.904h3.606v-3.904h1.307V-2Zm6.285-1.828h1.218c-.184 1.161-1.326 1.961-2.818 1.961-1.943 0-3.053-1.142-3.053-3.11v-1.054c0-1.822 1.187-3.021 2.983-3.021 1.81 0 2.907 1.193 2.907 3.16v.75h-4.64v.311c0 1.168.705 1.917 1.797 1.917.818 0 1.434-.35 1.605-.914ZM35.73-8.011c-1.072 0-1.72.736-1.72 1.974h3.39c0-1.232-.622-1.974-1.67-1.974Zm6.792 6.125c-1.32 0-2.196-.831-2.196-2.082 0-1.231.889-1.955 2.501-2.05l1.815-.095v-.61c0-.793-.495-1.237-1.383-1.237-.737 0-1.264.317-1.429.863h-1.244c.127-1.143 1.213-1.917 2.698-1.917 1.67 0 2.622.838 2.622 2.291v4.73h-1.213v-1.01h-.12c-.33.711-1.073 1.117-2.05 1.117Zm.394-1.06c.99 0 1.726-.654 1.726-1.536v-.73l-1.644.083c-.92.05-1.402.431-1.402 1.104 0 .667.507 1.08 1.32 1.08Zm7.477 1.06c-1.593 0-2.609-1.136-2.609-2.945v-1.257c0-1.809 1.016-2.945 2.61-2.945.996 0 1.726.438 2.005 1.212h.12v-3.796h1.308V-2h-1.276v-1.092h-.12c-.33.781-1.041 1.206-2.038 1.206Zm.42-1.13c1.066 0 1.738-.749 1.738-1.936v-1.034c0-1.194-.672-1.943-1.739-1.943-1.066 0-1.74.756-1.74 1.943v1.034c0 1.187.674 1.936 1.74 1.936Zm7.864-7.522c-.565 0-.984-.393-.984-.94 0-.551.419-.945.984-.945.571 0 .984.394.984.946 0 .546-.413.94-.984.94ZM61.597-2h-5.808v-1.028h2.33v-4.863h-2.28v-1.028h3.523v5.89h2.235V-2Zm1.694 0v-6.919h1.232v1.206h.089c.362-.857 1.142-1.34 2.177-1.34 1.504 0 2.317.902 2.317 2.565V-2H67.83v-4.17c0-1.187-.476-1.746-1.498-1.746-1.06 0-1.771.743-1.771 1.86V-2h-1.27ZM73.638.596c-1.663 0-2.767-.717-2.9-1.885h1.256c.133.54.787.889 1.663.889 1.143 0 1.771-.572 1.771-1.613v-1.155h-.12c-.273.743-1.054 1.206-2.07 1.206-1.593 0-2.621-1.142-2.621-2.945v-1.18c0-1.81 1.034-2.946 2.666-2.946 1.002 0 1.764.457 2.044 1.212h.12v-1.098h1.257v6.913c0 1.625-1.149 2.602-3.066 2.602Zm-1.727-5.624c0 1.18.686 1.943 1.759 1.943 1.066 0 1.758-.762 1.758-1.943v-.958c0-1.187-.692-1.943-1.758-1.943-1.073 0-1.758.762-1.758 1.943v.958Zm6.957-1.98c0-1.238 1.035-2.05 2.622-2.05 1.51 0 2.501.723 2.615 1.923h-1.219c-.114-.565-.653-.914-1.415-.914-.813 0-1.34.38-1.34.952 0 .495.337.768 1.143.946l1.003.222c1.365.304 1.98.888 1.98 1.904 0 1.314-1.085 2.152-2.773 2.152-1.632 0-2.685-.73-2.8-1.949h1.283c.14.59.71.927 1.548.927.87 0 1.429-.387 1.429-.99 0-.508-.311-.768-1.15-.959l-1.034-.235c-1.263-.285-1.892-.92-1.892-1.93Z"/>
    <path fill="#fff" d="M25.168 27v-9.16h1.143v3.961h5.027v-3.96h1.142V27h-1.142v-4.17H26.31V27h-1.143Zm11.743 0v-7.89h-.101l-2.33 1.688v-1.206l2.438-1.752h1.136V27H36.91Z"/>
    <path fill="color(display-p3 .8 .7882 .8627)" d="M177.079 26.5h-.763l1.584-7.75h.763l-.494 2.406-.016.086-.543 2.653-.016.086-.515 2.519Zm2.529 0h-.768l.521-2.519.016-.086.543-2.653.016-.086.494-2.406h.768l-1.59 7.75Zm1.848-2.165h-5.962l.151-.773h5.961l-.15.773Zm.5-2.728h-5.973l.156-.768h5.967l-.15.768Zm6.402 4.893v-6.88h-2.498v-.87h5.962v.87h-2.497v6.88h-.967Zm4.753 0v-5.79h.935v5.79h-.935Zm.473-6.907a.635.635 0 0 1-.457-.188.635.635 0 0 1-.188-.457c0-.179.063-.331.188-.456a.635.635 0 0 1 .457-.188c.179 0 .331.062.457.188a.623.623 0 0 1 .188.456.635.635 0 0 1-.188.457.624.624 0 0 1-.457.188Zm4.281 6.95c-.595 0-1.026-.12-1.295-.36-.265-.24-.397-.636-.397-1.187v-3.513h-.913v-.773h.913v-1.499h.967v1.499h1.267v.773h-1.267v3.277c0 .34.064.585.193.736.129.146.344.22.645.22.082 0 .152-.002.209-.006.061-.003.134-.009.22-.016v.795a7.044 7.044 0 0 1-.268.038c-.09.01-.181.016-.274.016Zm1.992-.043v-8.089h.935V26.5h-.935Zm5.092.102c-.551 0-1.026-.122-1.423-.365a2.418 2.418 0 0 1-.913-1.031c-.211-.448-.317-.974-.317-1.58v-.005c0-.598.106-1.122.317-1.574.215-.45.517-.803.908-1.058.39-.254.846-.381 1.369-.381.527 0 .978.122 1.354.365.379.244.669.584.87 1.02.204.434.306.939.306 1.515v.366h-4.641v-.747h4.163l-.462.682v-.37c0-.455-.068-.83-.204-1.123a1.44 1.44 0 0 0-.564-.655 1.554 1.554 0 0 0-.827-.22 1.55 1.55 0 0 0-.838.23c-.244.15-.437.375-.58.672-.143.297-.215.662-.215 1.096v.37c0 .412.07.765.209 1.058.14.29.339.514.597.672.257.153.562.23.913.23.261 0 .488-.035.682-.107.193-.072.353-.163.478-.274a.998.998 0 0 0 .263-.338l.022-.049h.934l-.011.043c-.05.197-.139.389-.268.575a2.15 2.15 0 0 1-.489.5 2.52 2.52 0 0 1-.714.354 3.046 3.046 0 0 1-.919.13Z"/>
    <path fill="#fff" d="M25.168 52v-9.16h1.143v3.961h5.027v-3.96h1.142V52h-1.142v-4.17H26.31V52h-1.143Zm9.502 0v-.787l3.098-3.352c.39-.423.694-.772.914-1.047.22-.28.375-.531.463-.755a1.98 1.98 0 0 0 .134-.737v-.012c0-.322-.07-.61-.21-.864a1.541 1.541 0 0 0-.596-.603c-.258-.148-.567-.222-.927-.222a1.94 1.94 0 0 0-.959.229 1.58 1.58 0 0 0-.64.628 1.86 1.86 0 0 0-.23.94l-.006.012-1.091-.006-.013-.007a2.733 2.733 0 0 1 .394-1.44 2.675 2.675 0 0 1 1.066-.99c.453-.242.971-.363 1.555-.363.533 0 1.014.113 1.441.337.427.22.764.523 1.01.908.249.385.374.825.374 1.32v.013c0 .347-.062.681-.184 1.003-.119.321-.33.679-.635 1.072-.305.39-.734.87-1.289 1.441l-2.367 2.444.285-.527v.527l-.279-.19h4.621V52H34.67Z"/>
    <path fill="color(display-p3 .8 .7882 .8627)" d="M170.15 51.5h-.763l1.585-7.75h.762l-.494 2.406-.016.086-.542 2.653-.016.086-.516 2.519Zm2.53 0h-.768l.521-2.519.016-.086.542-2.653.016-.086.494-2.407h.769l-1.59 7.751Zm1.847-2.165h-5.962l.151-.773h5.962l-.151.773Zm.5-2.728h-5.973l.156-.768h5.967l-.15.768Zm2.052 4.893h-.763l1.584-7.75h.763l-.494 2.406-.016.086-.543 2.653-.016.086-.515 2.519Zm2.529 0h-.768l.521-2.519.016-.086.543-2.653.016-.086.494-2.407h.768l-1.59 7.751Zm1.848-2.165h-5.962l.151-.773h5.961l-.15.773Zm.5-2.728h-5.973l.156-.768h5.967l-.15.768Zm6.402 4.893v-6.88h-2.498v-.87h5.962v.87h-2.497v6.88h-.967Zm4.753 0v-5.79h.935v5.79h-.935Zm.473-6.907a.635.635 0 0 1-.457-.188.635.635 0 0 1-.188-.457c0-.179.063-.331.188-.456a.635.635 0 0 1 .457-.188c.179 0 .331.062.457.188a.623.623 0 0 1 .188.456.635.635 0 0 1-.188.457.624.624 0 0 1-.457.188Zm4.281 6.95c-.595 0-1.026-.12-1.295-.36-.265-.24-.397-.636-.397-1.187v-3.513h-.913v-.773h.913v-1.499h.967v1.499h1.267v.773h-1.267v3.277c0 .34.064.585.193.736.129.146.344.22.645.22a5.074 5.074 0 0 0 .429-.022v.795a7.044 7.044 0 0 1-.268.038c-.09.01-.181.016-.274.016Zm1.992-.043v-8.089h.935V51.5h-.935Zm5.092.102c-.551 0-1.026-.122-1.423-.365a2.418 2.418 0 0 1-.913-1.031c-.211-.448-.317-.974-.317-1.58v-.005c0-.598.106-1.123.317-1.574.215-.45.517-.803.908-1.058.39-.254.846-.381 1.369-.381.527 0 .978.122 1.354.365.379.244.669.584.87 1.02.204.434.306.939.306 1.515v.365h-4.641v-.746h4.163l-.462.682v-.37c0-.455-.068-.83-.204-1.123a1.44 1.44 0 0 0-.564-.655 1.554 1.554 0 0 0-.827-.22 1.55 1.55 0 0 0-.838.23c-.244.15-.437.375-.58.672-.143.297-.215.662-.215 1.095v.371c0 .412.07.765.209 1.058.14.29.339.514.597.672.257.154.562.23.913.23.261 0 .488-.035.682-.107.193-.072.353-.163.478-.274a.998.998 0 0 0 .263-.338l.022-.048h.934l-.011.042c-.05.197-.139.389-.268.575a2.15 2.15 0 0 1-.489.5c-.2.147-.439.265-.714.354a3.046 3.046 0 0 1-.919.13Z"/>
    <path fill="#fff" d="M25.168 77v-9.16h1.143v3.961h5.027v-3.96h1.142V77h-1.142v-4.17H26.31V77h-1.143Zm12.62.152c-.631 0-1.182-.108-1.651-.323a2.794 2.794 0 0 1-1.117-.89 2.545 2.545 0 0 1-.47-1.288l-.006-.076h1.098l.006.064c.03.3.135.565.317.793.186.229.434.409.743.54.313.127.673.19 1.08.19.401 0 .752-.07 1.053-.21a1.7 1.7 0 0 0 .71-.577c.17-.25.255-.535.255-.857v-.013c0-.563-.189-.994-.565-1.295-.373-.304-.88-.457-1.524-.457h-1.149v-.964h1.099c.363 0 .685-.068.964-.204.28-.14.498-.328.654-.564.157-.242.235-.515.235-.82v-.012c0-.322-.068-.595-.203-.819a1.297 1.297 0 0 0-.597-.514c-.258-.118-.573-.178-.946-.178-.36 0-.68.062-.964.184-.28.119-.504.29-.673.514-.17.225-.271.491-.305.8l-.006.064h-1.099l.007-.064c.05-.5.207-.935.47-1.307a2.692 2.692 0 0 1 1.053-.87c.44-.207.946-.311 1.517-.311.584 0 1.092.102 1.524.305a2.35 2.35 0 0 1 1.01.831c.24.352.36.76.36 1.225v.013c0 .377-.082.71-.247 1.003a2.13 2.13 0 0 1-.685.73 2.867 2.867 0 0 1-1.01.412v.026c.67.055 1.209.281 1.62.68.414.393.621.915.621 1.567v.013c0 .508-.137.962-.412 1.364-.275.402-.652.72-1.13.953-.478.228-1.024.342-1.638.342Z"/>
    <path fill="color(display-p3 .8 .7882 .8627)" d="M163.221 76.5h-.763l1.585-7.75h.763l-.494 2.406-.017.086-.542 2.653-.016.086-.516 2.519Zm2.53 0h-.768l.521-2.519.016-.086.542-2.653.017-.086.494-2.407h.768l-1.59 7.751Zm1.848-2.165h-5.962l.15-.773h5.962l-.15.773Zm.499-2.728h-5.973l.156-.768h5.968l-.151.768Zm2.052 4.893h-.763l1.585-7.75h.762l-.494 2.406-.016.086-.542 2.653-.016.086-.516 2.519Zm2.53 0h-.768l.521-2.519.016-.086.542-2.653.016-.086.494-2.407h.769l-1.59 7.751Zm1.847-2.165h-5.962l.151-.773h5.962l-.151.773Zm.5-2.728h-5.973l.156-.768h5.967l-.15.768Zm2.052 4.893h-.763l1.584-7.75h.763l-.494 2.406-.016.086-.543 2.653-.016.086-.515 2.519Zm2.529 0h-.768l.521-2.519.016-.086.543-2.653.016-.086.494-2.407h.768l-1.59 7.751Zm1.848-2.165h-5.962l.151-.773h5.961l-.15.773Zm.5-2.728h-5.973l.156-.768h5.967l-.15.768Zm6.402 4.893v-6.88h-2.498v-.87h5.962v.87h-2.497v6.88h-.967Zm4.753 0v-5.79h.935v5.79h-.935Zm.473-6.907a.635.635 0 0 1-.457-.188.635.635 0 0 1-.188-.457c0-.179.063-.331.188-.456a.635.635 0 0 1 .457-.188c.179 0 .331.062.457.188a.623.623 0 0 1 .188.456.635.635 0 0 1-.188.457.624.624 0 0 1-.457.188Zm4.281 6.95c-.595 0-1.026-.12-1.295-.36-.265-.24-.397-.636-.397-1.187v-3.513h-.913v-.773h.913v-1.499h.967v1.499h1.267v.773h-1.267v3.277c0 .34.064.585.193.736.129.146.344.22.645.22a5.074 5.074 0 0 0 .429-.022v.795a7.044 7.044 0 0 1-.268.038c-.09.01-.181.016-.274.016Zm1.992-.043v-8.089h.935V76.5h-.935Zm5.092.102c-.551 0-1.026-.122-1.423-.365a2.418 2.418 0 0 1-.913-1.031c-.211-.448-.317-.974-.317-1.58v-.005c0-.598.106-1.122.317-1.574.215-.45.517-.803.908-1.058.39-.254.846-.381 1.369-.381.527 0 .978.122 1.354.365.379.244.669.584.87 1.02.204.434.306.939.306 1.515v.366h-4.641v-.747h4.163l-.462.682v-.37c0-.455-.068-.83-.204-1.123a1.44 1.44 0 0 0-.564-.655 1.554 1.554 0 0 0-.827-.22 1.55 1.55 0 0 0-.838.23c-.244.15-.437.375-.58.672-.143.297-.215.662-.215 1.096v.37c0 .412.07.765.209 1.058.14.29.339.514.597.672.257.153.562.23.913.23.261 0 .488-.035.682-.107.193-.072.353-.163.478-.274a.998.998 0 0 0 .263-.338l.022-.049h.934l-.011.043c-.05.197-.139.389-.268.575a2.15 2.15 0 0 1-.489.5c-.2.147-.439.265-.714.354a3.046 3.046 0 0 1-.919.13Z"/>
    <path fill="color(display-p3 .6039 .8039 .7961)" d="M26.863 107h-1.327v-9.16h5.523v1.175h-4.196v2.958h3.827v1.136h-3.827V107Zm8.791.133c-1.866 0-3.053-1.193-3.053-3.066v-1.047c0-1.879 1.187-3.066 3.053-3.066 1.866 0 3.053 1.187 3.053 3.066v1.047c0 1.873-1.187 3.066-3.053 3.066Zm0-6.1c-1.104 0-1.796.794-1.796 2.076v.87c0 1.282.692 2.075 1.796 2.075 1.105 0 1.797-.793 1.797-2.075v-.87c0-1.282-.692-2.076-1.797-2.076Zm7.408 2.882v2.107h2.1V107h-4.71v-.978h1.372v-4.963H40.32v-.978h2.736v1.765h.177c.273-1.302 1.08-1.943 2.406-1.943.393 0 .768.051.996.146v1.397a3.627 3.627 0 0 0-1.142-.197c-1.562 0-2.431.971-2.431 2.666Zm11.248-2.088V107h-1.117v-4.78c0-.742-.292-1.142-.813-1.142-.546 0-.889.469-.889 1.231V107h-1.11v-4.786c0-.743-.286-1.136-.813-1.136-.558 0-.908.469-.908 1.231V107h-1.117v-6.919h1.124v1.003h.14c.164-.717.653-1.136 1.313-1.136.648 0 1.099.406 1.245 1.111h.14c.164-.686.697-1.111 1.383-1.111.933 0 1.422.654 1.422 1.879Zm3.484 5.287c-1.32 0-2.196-.831-2.196-2.082 0-1.231.889-1.955 2.501-2.05l1.816-.095v-.61c0-.793-.495-1.237-1.384-1.237-.736 0-1.263.317-1.428.863h-1.245c.127-1.143 1.213-1.917 2.698-1.917 1.67 0 2.622.838 2.622 2.291v4.729h-1.213v-1.009h-.12c-.33.711-1.073 1.117-2.05 1.117Zm.394-1.06c.99 0 1.727-.654 1.727-1.536v-.73l-1.644.083c-.92.05-1.403.431-1.403 1.104 0 .667.508 1.079 1.32 1.079Zm6.754-7.865h1.257v1.93h2.736v1.048h-2.717v3.738c0 .686.476 1.06 1.358 1.06.324 0 1.168-.012 1.32-.031v1.041c-.14.025-1.142.05-1.409.05-1.77 0-2.545-.634-2.545-2.12v-3.738h-1.828v-1.048h1.828v-1.93Zm7.636 0h1.257v1.93h2.736v1.048h-2.717v3.738c0 .686.476 1.06 1.358 1.06.324 0 1.168-.012 1.32-.031v1.041c-.139.025-1.142.05-1.409.05-1.77 0-2.545-.634-2.545-2.12v-3.738H70.75v-1.048h1.828v-1.93Zm9.007.273c-.565 0-.984-.393-.984-.94 0-.551.42-.945.984-.945.572 0 .984.394.984.946 0 .546-.413.94-.984.94Zm2.92 8.538h-5.808v-1.028h2.33v-4.863h-2.28v-1.028h3.524v5.891h2.234V107Zm1.695 0v-6.919h1.231v1.206h.09c.361-.857 1.142-1.34 2.177-1.34 1.504 0 2.316.902 2.316 2.565V107H90.74v-4.17c0-1.187-.477-1.746-1.499-1.746-1.06 0-1.77.743-1.77 1.86V107H86.2Zm10.346 2.596c-1.663 0-2.767-.717-2.9-1.885h1.256c.134.539.788.889 1.663.889 1.143 0 1.772-.572 1.772-1.613v-1.155h-.121c-.273.743-1.054 1.206-2.07 1.206-1.593 0-2.621-1.142-2.621-2.945v-1.181c0-1.809 1.035-2.945 2.666-2.945 1.003 0 1.765.457 2.044 1.212h.12v-1.098h1.257v6.913c0 1.625-1.148 2.602-3.066 2.602Zm-1.726-5.624c0 1.181.686 1.943 1.758 1.943 1.067 0 1.758-.762 1.758-1.943v-.958c0-1.187-.691-1.943-1.758-1.943-1.073 0-1.758.762-1.758 1.943v.958Z"/>
    <path fill="#fff" d="M25.168 136v-9.16h1.143V136h-1.143Zm5.77.051c-.703 0-1.212-.142-1.53-.426-.313-.283-.47-.751-.47-1.402v-4.152H27.86v-.914h1.08v-1.771h1.142v1.771h1.498v.914h-1.498v3.872c0 .402.076.692.229.87.152.173.406.26.761.26.098 0 .18-.002.248-.006.072-.004.159-.011.26-.019v.939a8.65 8.65 0 0 1-.317.045 2.869 2.869 0 0 1-.324.019Zm4.17.07c-.431 0-.82-.083-1.168-.248a2.01 2.01 0 0 1-.818-.705c-.2-.304-.299-.664-.299-1.079v-.012c0-.407.098-.754.292-1.041.195-.292.478-.521.85-.686.373-.165.824-.262 1.353-.292l2.514-.152v.882l-2.38.152c-.521.03-.902.138-1.143.324-.237.186-.356.449-.356.787v.013c0 .347.131.618.394.812.262.191.592.286.99.286.377 0 .71-.074 1.003-.222a1.76 1.76 0 0 0 .685-.616c.17-.258.254-.55.254-.876v-2.133c0-.423-.129-.744-.387-.964-.254-.225-.637-.337-1.149-.337-.41 0-.747.074-1.01.222a1.074 1.074 0 0 0-.526.616l-.006.019h-1.105l.007-.038c.059-.36.207-.673.444-.939.241-.271.552-.481.933-.629.38-.152.815-.228 1.301-.228.559 0 1.03.091 1.416.273.39.182.683.444.882.787.203.338.305.744.305 1.218V136h-1.105v-1.009h-.101c-.144.241-.32.446-.527.615-.203.17-.434.299-.692.388a2.736 2.736 0 0 1-.85.127Zm5.358-.121v-9.56h1.104V136h-1.104Zm3.25 0v-6.843h1.104V136h-1.104Zm.558-8.163a.749.749 0 0 1-.54-.222.75.75 0 0 1-.221-.54c0-.211.074-.391.222-.539a.75.75 0 0 1 .54-.223c.211 0 .39.075.539.223a.734.734 0 0 1 .222.539.75.75 0 0 1-.222.54.735.735 0 0 1-.54.222Zm5.428 8.284c-.64 0-1.194-.146-1.663-.438a2.913 2.913 0 0 1-1.092-1.238c-.258-.533-.387-1.162-.387-1.885v-.013c0-.711.127-1.329.38-1.854a2.884 2.884 0 0 1 1.092-1.218c.47-.292 1.024-.438 1.663-.438.555 0 1.033.097 1.435.292a2.534 2.534 0 0 1 1.428 1.885l.007.038h-1.099l-.006-.019a1.566 1.566 0 0 0-.578-.863c-.3-.237-.696-.356-1.187-.356-.41 0-.766.104-1.066.311-.3.208-.533.502-.698.883-.161.376-.241.823-.241 1.339v.013c0 .524.082.981.247 1.371.165.385.398.683.698.895.3.211.654.317 1.06.317.462 0 .838-.099 1.13-.298.292-.199.502-.489.629-.87l.012-.038 1.092-.006-.013.069a2.918 2.918 0 0 1-.495 1.099c-.237.317-.55.567-.94.749-.389.182-.858.273-1.408.273Z"/>
    <path fill="color(display-p3 .8 .7882 .8627)" d="M180.097 127.846h.736l-.081 1.885h-.574l-.081-1.885Zm0 3.765.081-1.88h.574l.081 1.88h-.736Zm-1.445-2.54.366-.57 1.589 1.005-.29.446-1.665-.881Zm3.62 0-1.665.881-.29-.446 1.59-1.005.365.57Zm0 1.316-.365.569-1.59-1.004.29-.446 1.665.881Zm-3.62 0 1.665-.881.29.446-1.589 1.004-.366-.569Zm7.332 5.156c-.595 0-1.026-.12-1.295-.36-.265-.24-.397-.635-.397-1.187v-3.513h-.913v-.773h.913v-1.499h.967v1.499h1.267v.773h-1.267v3.277c0 .34.064.585.193.736.129.146.344.22.645.22.082 0 .152-.002.209-.006.061-.003.134-.009.22-.016v.795a6.167 6.167 0 0 1-.268.038c-.09.011-.181.016-.274.016Zm4.227.059c-.551 0-1.026-.122-1.423-.365a2.414 2.414 0 0 1-.913-1.031c-.212-.448-.317-.974-.317-1.58v-.005c0-.598.105-1.122.317-1.574a2.52 2.52 0 0 1 .907-1.058c.391-.254.847-.381 1.37-.381.526 0 .977.122 1.353.365.38.244.67.584.87 1.021.205.433.307.938.307 1.514v.366h-4.641v-.747h4.163l-.462.682v-.371c0-.454-.068-.828-.204-1.122a1.435 1.435 0 0 0-.564-.655 1.553 1.553 0 0 0-.828-.221c-.311 0-.59.077-.837.231a1.559 1.559 0 0 0-.58.672c-.144.297-.215.662-.215 1.095v.371c0 .412.069.765.209 1.058.14.29.339.514.596.672.258.154.563.231.913.231.262 0 .489-.036.683-.108.193-.072.352-.163.478-.274.125-.111.213-.224.263-.338l.021-.049h.935l-.011.043c-.05.197-.14.389-.268.575a2.178 2.178 0 0 1-.489.5 2.527 2.527 0 0 1-.715.354 3.039 3.039 0 0 1-.918.129Zm3.244-.102 1.982-2.895-2.003-2.895h1.101l1.375 2.154h.086l1.358-2.154h1.048l-1.966 2.857 1.993 2.933h-1.096l-1.37-2.186h-.086l-1.375 2.186h-1.047Zm8.288.043c-.595 0-1.026-.12-1.295-.36-.265-.24-.397-.635-.397-1.187v-3.513h-.913v-.773h.913v-1.499h.967v1.499h1.267v.773h-1.267v3.277c0 .34.064.585.193.736.129.146.344.22.644.22.083 0 .153-.002.21-.006.061-.003.134-.009.22-.016v.795a6.167 6.167 0 0 1-.268.038c-.09.011-.181.016-.274.016Zm3.298-7.697h.735l-.08 1.885h-.575l-.08-1.885Zm0 3.765.08-1.88h.575l.08 1.88h-.735Zm-1.445-2.54.365-.57 1.59 1.005-.29.446-1.665-.881Zm3.62 0-1.665.881-.29-.446 1.59-1.005.365.57Zm0 1.316-.365.569-1.59-1.004.29-.446 1.665.881Zm-3.62 0 1.665-.881.29.446-1.59 1.004-.365-.569Z"/>
    <path fill="#fff" d="M25.74 161v-1.009h2.83c.69 0 1.213-.138 1.568-.413.356-.275.533-.675.533-1.2v-.012c0-.352-.082-.646-.247-.883-.165-.237-.413-.414-.743-.533-.326-.118-.732-.178-1.219-.178H25.74v-.983h2.4c.694 0 1.214-.123 1.561-.369.351-.245.527-.609.527-1.091v-.013c0-.466-.159-.825-.476-1.079-.313-.258-.753-.387-1.32-.387H25.74v-1.01h2.933c.563 0 1.045.093 1.447.28.406.186.717.45.933.793.22.339.33.741.33 1.206v.013c0 .317-.072.616-.216.895-.14.279-.328.514-.564.704a1.772 1.772 0 0 1-.8.369v.101c.419.051.78.176 1.085.375.305.199.54.457.705.774.17.313.254.671.254 1.073v.013c0 .533-.125.992-.375 1.377-.245.381-.599.675-1.06.882-.461.203-1.018.305-1.67.305H25.74Zm-.572 0v-9.16h1.143V161h-1.143Zm11.216.121c-.647 0-1.208-.142-1.682-.426a2.873 2.873 0 0 1-1.092-1.225c-.254-.529-.38-1.157-.38-1.885v-.013c0-.732.126-1.362.38-1.891a2.834 2.834 0 0 1 1.092-1.219c.474-.284 1.035-.425 1.682-.425.652 0 1.213.141 1.682.425.47.283.832.69 1.086 1.219.258.529.387 1.159.387 1.891v.013c0 .728-.129 1.356-.387 1.885a2.833 2.833 0 0 1-1.086 1.225c-.47.284-1.03.426-1.682.426Zm0-.978c.432 0 .798-.101 1.098-.305.3-.203.53-.495.686-.876.16-.38.241-.84.241-1.377v-.013c0-.541-.08-1.003-.241-1.384-.157-.38-.385-.67-.686-.869-.3-.203-.666-.305-1.098-.305-.431 0-.797.102-1.098.305-.3.199-.531.489-.692.869-.156.381-.235.843-.235 1.384v.013c0 .537.079.997.235 1.377.161.381.392.673.692.876.3.204.667.305 1.098.305Zm4.932.857v-9.56h1.105V161h-1.105Zm5.751.121c-.575 0-1.079-.146-1.51-.438-.432-.292-.766-.703-1.003-1.232-.237-.533-.356-1.155-.356-1.866v-.013c0-.715.119-1.337.356-1.866.237-.529.569-.939.996-1.231.432-.292.938-.438 1.517-.438.313 0 .608.05.883.152.279.097.527.235.742.413.216.177.386.389.508.634h.102v-3.796h1.104V161h-1.104v-1.092H49.2c-.14.254-.315.472-.527.654a2.359 2.359 0 0 1-.723.413 2.6 2.6 0 0 1-.883.146Zm.254-.978c.415 0 .773-.104 1.073-.311.3-.207.531-.501.692-.882.16-.385.241-.84.241-1.365v-.013c0-.529-.08-.984-.241-1.364a1.975 1.975 0 0 0-.692-.883c-.3-.207-.658-.311-1.073-.311-.414 0-.772.104-1.072.311-.297.203-.525.495-.686.876-.157.381-.235.838-.235 1.371v.013c0 .529.078.986.235 1.371.16.381.39.675.685.882.301.204.659.305 1.073.305Z"/>
    <path fill="color(display-p3 .8 .7882 .8627)" d="M169.72 152.846h.736l-.081 1.885h-.574l-.081-1.885Zm0 3.765.081-1.88h.574l.081 1.88h-.736Zm-1.445-2.54.366-.57 1.589 1.005-.29.446-1.665-.881Zm3.621 0-1.666.881-.29-.446 1.59-1.005.366.57Zm0 1.316-.366.569-1.59-1.004.29-.446 1.666.881Zm-3.621 0 1.665-.881.29.446-1.589 1.004-.366-.569Zm6.634-2.541h.736l-.081 1.885h-.575l-.08-1.885Zm0 3.765.08-1.88h.575l.081 1.88h-.736Zm-1.445-2.54.365-.57 1.59 1.005-.29.446-1.665-.881Zm3.62 0-1.665.881-.29-.446 1.59-1.005.365.57Zm0 1.316-.365.569-1.59-1.004.29-.446 1.665.881Zm-3.62 0 1.665-.881.29.446-1.59 1.004-.365-.569Zm7.331 5.156c-.594 0-1.025-.12-1.294-.36-.265-.24-.397-.635-.397-1.187v-3.513h-.914v-.773h.914v-1.499h.966v1.499h1.268v.773h-1.268v3.277c0 .34.065.585.194.736.129.146.343.22.644.22.083 0 .152-.002.21-.006.061-.003.134-.009.22-.016v.795c-.09.015-.179.027-.269.038a2.23 2.23 0 0 1-.274.016Zm4.227.059c-.551 0-1.025-.122-1.423-.365a2.42 2.42 0 0 1-.913-1.031c-.211-.448-.317-.974-.317-1.58v-.005c0-.598.106-1.122.317-1.574.215-.451.517-.804.908-1.058.39-.254.847-.381 1.369-.381.527 0 .978.122 1.354.365.379.244.669.584.87 1.021.204.433.306.938.306 1.514v.366h-4.64v-.747h4.162l-.462.682v-.371c0-.454-.068-.828-.204-1.122a1.435 1.435 0 0 0-.564-.655 1.55 1.55 0 0 0-.827-.221 1.55 1.55 0 0 0-.838.231 1.565 1.565 0 0 0-.58.672c-.143.297-.215.662-.215 1.095v.371c0 .412.07.765.21 1.058.139.29.338.514.596.672.258.154.562.231.913.231.261 0 .489-.036.682-.108.193-.072.353-.163.478-.274.125-.111.213-.224.263-.338l.022-.049h.934l-.01.043c-.051.197-.14.389-.269.575a2.138 2.138 0 0 1-.489.5c-.2.146-.438.265-.714.354a3.041 3.041 0 0 1-.919.129Zm3.245-.102 1.982-2.895-2.004-2.895h1.101l1.375 2.154h.086l1.359-2.154h1.047l-1.965 2.857 1.992 2.933h-1.095l-1.37-2.186h-.086l-1.375 2.186h-1.047Zm8.287.043c-.594 0-1.026-.12-1.294-.36-.265-.24-.398-.635-.398-1.187v-3.513h-.913v-.773h.913v-1.499h.967v1.499h1.268v.773h-1.268v3.277c0 .34.065.585.193.736.129.146.344.22.645.22.082 0 .152-.002.209-.006.061-.003.135-.009.221-.016v.795c-.09.015-.179.027-.269.038a2.241 2.241 0 0 1-.274.016Zm3.298-7.697h.736l-.081 1.885h-.574l-.081-1.885Zm0 3.765.081-1.88h.574l.081 1.88h-.736Zm-1.445-2.54.365-.57 1.59 1.005-.29.446-1.665-.881Zm3.62 0-1.665.881-.29-.446 1.59-1.005.365.57Zm0 1.316-.365.569-1.59-1.004.29-.446 1.665.881Zm-3.62 0 1.665-.881.29.446-1.59 1.004-.365-.569Zm6.634-2.541h.735l-.08 1.885h-.575l-.08-1.885Zm0 3.765.08-1.88h.575l.08 1.88h-.735Zm-1.445-2.54.365-.57 1.59 1.005-.29.446-1.665-.881Zm3.62 0-1.665.881-.29-.446 1.59-1.005.365.57Zm0 1.316-.365.569-1.59-1.004.29-.446 1.665.881Zm-3.62 0 1.665-.881.29.446-1.59 1.004-.365-.569Z"/>
    <path fill="#fff" d="M28.17 186.216c-.668 0-1.252-.108-1.752-.324-.495-.22-.888-.52-1.18-.901a2.562 2.562 0 0 1-.502-1.321l-.006-.069h1.143l.006.069c.03.305.146.57.349.794.207.22.482.391.825.514.347.123.74.184 1.18.184a2.89 2.89 0 0 0 1.105-.197 1.85 1.85 0 0 0 .768-.558c.187-.237.28-.51.28-.819v-.006c0-.381-.14-.701-.42-.959-.279-.262-.733-.463-1.364-.603l-1.016-.222c-.918-.203-1.586-.516-2.005-.94-.415-.427-.622-.973-.622-1.637v-.007a2.33 2.33 0 0 1 .412-1.345 2.75 2.75 0 0 1 1.136-.914c.487-.22 1.046-.33 1.676-.33.61 0 1.149.11 1.619.33.47.215.842.507 1.117.876.28.368.434.78.463 1.237l.007.089h-1.143l-.013-.082a1.421 1.421 0 0 0-.33-.718 1.822 1.822 0 0 0-.71-.501 2.631 2.631 0 0 0-1.042-.178c-.38 0-.723.059-1.028.178-.305.118-.548.29-.73.514a1.25 1.25 0 0 0-.267.813v.006c0 .364.136.671.407.92.27.25.717.443 1.34.578l1.015.229c.639.139 1.153.321 1.542.545.39.225.673.5.85.826.183.321.274.702.274 1.142v.007c0 .571-.14 1.064-.42 1.479-.279.414-.672.736-1.18.964-.508.225-1.102.337-1.784.337Zm7.58-.165c-.703 0-1.213-.142-1.53-.426-.313-.283-.47-.751-.47-1.402v-4.152h-1.08v-.914h1.08v-1.771h1.143v1.771h1.498v.914h-1.498v3.872c0 .402.076.692.228.87.152.173.406.26.762.26.097 0 .18-.002.247-.006.072-.004.16-.011.26-.019v.939a8.65 8.65 0 0 1-.317.045 2.869 2.869 0 0 1-.324.019Zm2.29-.051v-6.843h1.105v1.016h.101a1.62 1.62 0 0 1 .667-.838c.313-.199.7-.298 1.161-.298.106 0 .21.006.311.019.106.008.186.017.241.025v1.073a3.388 3.388 0 0 0-.336-.045 3.04 3.04 0 0 0-.343-.019c-.351 0-.662.07-.933.21-.27.139-.484.334-.641.584a1.645 1.645 0 0 0-.229.876V186H38.04Zm4.977 0v-6.843h1.104V186h-1.104Zm.558-8.163a.749.749 0 0 1-.54-.222.75.75 0 0 1-.221-.54c0-.211.074-.391.222-.539a.75.75 0 0 1 .54-.223c.21 0 .39.075.539.223a.734.734 0 0 1 .222.539.75.75 0 0 1-.222.54.735.735 0 0 1-.54.222ZM46.268 186v-9.56h1.104V186h-1.104Zm4.31 0-2.673-3.352.813-.704 3.25 4.056h-1.39Zm-3.346-2.463-.05-1.39h.292l2.958-2.99h1.339l-3.25 3.136-.267.26-1.022.984Zm8.506 2.584c-.651 0-1.212-.144-1.682-.432a2.858 2.858 0 0 1-1.079-1.219c-.25-.529-.374-1.151-.374-1.866v-.006c0-.707.124-1.327.374-1.86.254-.533.612-.95 1.073-1.251.461-.3 1-.45 1.619-.45.622 0 1.155.144 1.6.431.448.288.79.69 1.027 1.206.242.512.362 1.109.362 1.79v.432h-5.484v-.882h4.92l-.547.806v-.438c0-.538-.08-.98-.24-1.327-.162-.347-.384-.605-.667-.774a1.83 1.83 0 0 0-.978-.26c-.368 0-.698.09-.99.272a1.845 1.845 0 0 0-.686.794c-.169.351-.254.783-.254 1.295v.438c0 .486.083.903.248 1.25.165.343.4.608.705.794.304.182.664.273 1.079.273.309 0 .577-.043.806-.127a1.78 1.78 0 0 0 .565-.324c.148-.131.252-.264.31-.4l.026-.057h1.105l-.013.051c-.06.233-.165.459-.317.679a2.537 2.537 0 0 1-.578.59 2.963 2.963 0 0 1-.844.419 3.583 3.583 0 0 1-1.086.153Zm7.065-.07c-.702 0-1.212-.142-1.53-.426-.313-.283-.47-.751-.47-1.402v-4.152h-1.078v-.914h1.079v-1.771h1.142v1.771h1.498v.914h-1.498v3.872c0 .402.077.692.229.87.152.173.406.26.762.26a4.3 4.3 0 0 0 .247-.006c.072-.004.159-.011.26-.019v.939a8.676 8.676 0 0 1-.317.045 2.87 2.87 0 0 1-.324.019Zm2.355-.051v-9.56h1.105v3.746h.101c.174-.364.423-.646.75-.845.325-.203.74-.304 1.243-.304.513 0 .946.099 1.302.298.355.195.626.48.812.857.186.377.28.836.28 1.377V186h-1.105v-4.164c0-.618-.131-1.075-.394-1.371-.258-.301-.66-.451-1.206-.451-.364 0-.679.078-.945.235a1.608 1.608 0 0 0-.623.667c-.143.287-.215.632-.215 1.034V186h-1.105Zm7.592 0v-6.843h1.105v1.016h.101a1.62 1.62 0 0 1 .667-.838c.313-.199.7-.298 1.161-.298.106 0 .21.006.311.019.106.008.186.017.241.025v1.073a3.388 3.388 0 0 0-.336-.045 3.04 3.04 0 0 0-.343-.019c-.351 0-.662.07-.933.21-.27.139-.484.334-.641.584a1.645 1.645 0 0 0-.228.876V186H72.75Zm7.573.121c-.648 0-1.208-.142-1.682-.426a2.873 2.873 0 0 1-1.092-1.225c-.254-.529-.381-1.157-.381-1.885v-.013c0-.732.127-1.362.38-1.891a2.834 2.834 0 0 1 1.093-1.219c.474-.284 1.034-.425 1.682-.425.651 0 1.212.141 1.682.425.47.283.831.69 1.085 1.219.258.529.388 1.159.388 1.891v.013c0 .728-.13 1.356-.388 1.885a2.833 2.833 0 0 1-1.085 1.225c-.47.284-1.03.426-1.682.426Zm0-.978c.431 0 .797-.101 1.098-.305.3-.203.529-.495.685-.876.161-.38.242-.84.242-1.377v-.013c0-.541-.08-1.003-.242-1.384-.156-.38-.385-.67-.685-.869-.3-.203-.667-.305-1.098-.305-.432 0-.798.102-1.098.305-.3.199-.531.489-.692.869-.157.381-.235.843-.235 1.384v.013c0 .537.078.997.235 1.377.16.381.391.673.692.876.3.204.666.305 1.098.305Zm7.16.978c-.516 0-.95-.098-1.301-.292a1.894 1.894 0 0 1-.794-.864c-.173-.381-.26-.84-.26-1.377v-4.431h1.104v4.164c0 .614.119 1.071.356 1.371.241.301.635.451 1.18.451.301 0 .566-.044.794-.133a1.56 1.56 0 0 0 .584-.381c.157-.169.273-.372.35-.609.08-.242.12-.513.12-.813v-4.05h1.104V186h-1.104v-1.022h-.102c-.11.241-.26.449-.45.622a1.96 1.96 0 0 1-.686.387c-.262.089-.56.134-.895.134Zm8.119 2.291c-.55 0-1.03-.078-1.441-.235-.41-.152-.739-.37-.984-.654a1.927 1.927 0 0 1-.45-.977l.012-.006h1.142l.007.006c.059.258.237.47.533.635.296.169.69.254 1.18.254.614 0 1.092-.14 1.435-.419.347-.275.52-.665.52-1.168v-1.384h-.1a2.327 2.327 0 0 1-1.27 1.047 2.79 2.79 0 0 1-.876.134c-.589 0-1.099-.14-1.53-.419a2.795 2.795 0 0 1-.99-1.168c-.233-.496-.35-1.063-.35-1.702v-.012c0-.639.117-1.206.35-1.701.236-.5.57-.891 1.002-1.175.432-.287.946-.431 1.543-.431.322 0 .618.05.889.152.27.102.51.245.717.432.212.186.387.408.527.666h.076v-1.13h1.104v6.748c0 .508-.124.95-.374 1.326-.246.377-.597.667-1.054.87-.457.207-.996.311-1.618.311Zm-.051-3.745c.423 0 .785-.097 1.085-.292.305-.199.538-.472.699-.819.165-.347.247-.747.247-1.2v-.012c0-.453-.082-.855-.247-1.206a1.907 1.907 0 0 0-.699-.826c-.3-.198-.662-.298-1.085-.298-.423 0-.783.1-1.08.298a1.914 1.914 0 0 0-.672.826 3.004 3.004 0 0 0-.229 1.206v.012c0 .453.077.853.229 1.2.156.347.38.62.673.819.296.195.656.292 1.079.292Zm5.218 1.333v-9.56h1.104v3.746h.102a1.94 1.94 0 0 1 .749-.845c.325-.203.74-.304 1.244-.304.512 0 .946.099 1.301.298.356.195.626.48.813.857.186.377.279.836.279 1.377V186h-1.105v-4.164c0-.618-.131-1.075-.393-1.371-.258-.301-.66-.451-1.206-.451-.364 0-.679.078-.946.235a1.605 1.605 0 0 0-.622.667c-.144.287-.216.632-.216 1.034V186h-1.104Z"/>
    <path fill="color(display-p3 .8 .7882 .8627)" d="M165.241 183.223c-.233 0-.46-.045-.682-.135a6.414 6.414 0 0 1-.645-.317 6.763 6.763 0 0 0-.628-.311 1.518 1.518 0 0 0-.623-.14 1.69 1.69 0 0 0-.838.199 2.156 2.156 0 0 0-.602.489v-.849c.168-.19.376-.347.623-.472.247-.129.548-.194.903-.194.232 0 .458.047.676.14.222.089.439.193.65.311.215.118.425.224.629.317.207.09.415.135.623.135.322 0 .599-.065.832-.194a2.19 2.19 0 0 0 .607-.494v.849a2.165 2.165 0 0 1-.623.478c-.247.125-.548.188-.902.188Zm6.928 0c-.232 0-.46-.045-.682-.135a6.506 6.506 0 0 1-.644-.317 6.656 6.656 0 0 0-.629-.311 1.51 1.51 0 0 0-.623-.14c-.322 0-.601.067-.838.199a2.166 2.166 0 0 0-.601.489v-.849c.168-.19.376-.347.623-.472.247-.129.548-.194.902-.194.233 0 .459.047.677.14.222.089.439.193.65.311a9.5 9.5 0 0 0 .628.317c.208.09.416.135.623.135.323 0 .6-.065.833-.194.236-.132.439-.297.607-.494v.849a2.165 2.165 0 0 1-.623.478c-.247.125-.548.188-.903.188Zm5.146 2.32c-.594 0-1.026-.12-1.294-.36-.265-.24-.398-.635-.398-1.187v-3.513h-.913v-.773h.913v-1.499h.967v1.499h1.267v.773h-1.267v3.277c0 .34.064.585.193.736.129.146.344.22.645.22.082 0 .152-.002.209-.006.061-.003.134-.009.22-.016v.795a6.167 6.167 0 0 1-.268.038c-.09.011-.181.016-.274.016Zm4.227.059c-.551 0-1.026-.122-1.423-.365a2.414 2.414 0 0 1-.913-1.031c-.212-.448-.317-.974-.317-1.58v-.005c0-.598.105-1.122.317-1.574a2.52 2.52 0 0 1 .907-1.058c.391-.254.847-.381 1.37-.381.526 0 .977.122 1.353.365.38.244.67.584.871 1.021.204.433.306.938.306 1.514v.366h-4.641v-.747h4.163l-.462.682v-.371c0-.454-.068-.828-.204-1.122a1.435 1.435 0 0 0-.564-.655 1.552 1.552 0 0 0-.827-.221 1.55 1.55 0 0 0-.838.231 1.559 1.559 0 0 0-.58.672c-.144.297-.215.662-.215 1.095v.371c0 .412.07.765.209 1.058.14.29.339.514.596.672.258.154.563.231.913.231.262 0 .489-.036.683-.108.193-.072.352-.163.478-.274.125-.111.213-.224.263-.338l.021-.049h.935l-.011.043c-.05.197-.14.389-.268.575a2.178 2.178 0 0 1-.489.5 2.527 2.527 0 0 1-.715.354 3.039 3.039 0 0 1-.918.129Zm3.244-.102 1.982-2.895-2.003-2.895h1.101l1.375 2.154h.086l1.359-2.154h1.047l-1.966 2.857 1.993 2.933h-1.096l-1.37-2.186h-.086l-1.375 2.186h-1.047Zm8.288.043c-.595 0-1.026-.12-1.295-.36-.265-.24-.397-.635-.397-1.187v-3.513h-.913v-.773h.913v-1.499h.967v1.499h1.267v.773h-1.267v3.277c0 .34.064.585.193.736.129.146.344.22.645.22.082 0 .152-.002.209-.006.061-.003.134-.009.22-.016v.795a6.167 6.167 0 0 1-.268.038c-.09.011-.181.016-.274.016Zm5.779-2.32c-.233 0-.46-.045-.682-.135a6.521 6.521 0 0 1-.645-.317 6.642 6.642 0 0 0-.628-.311 1.514 1.514 0 0 0-.623-.14c-.322 0-.602.067-.838.199a2.17 2.17 0 0 0-.602.489v-.849c.169-.19.376-.347.623-.472.248-.129.548-.194.903-.194.233 0 .458.047.677.14.222.089.438.193.65.311.214.118.424.224.628.317.208.09.415.135.623.135.322 0 .6-.065.832-.194a2.19 2.19 0 0 0 .607-.494v.849a2.165 2.165 0 0 1-.623.478c-.247.125-.547.188-.902.188Zm6.929 0c-.233 0-.46-.045-.682-.135a6.414 6.414 0 0 1-.645-.317 6.763 6.763 0 0 0-.628-.311 1.518 1.518 0 0 0-.623-.14 1.69 1.69 0 0 0-.838.199 2.156 2.156 0 0 0-.602.489v-.849c.168-.19.376-.347.623-.472.247-.129.548-.194.903-.194.232 0 .458.047.676.14.222.089.439.193.65.311.215.118.425.224.629.317.207.09.415.135.623.135.322 0 .599-.065.832-.194a2.19 2.19 0 0 0 .607-.494v.849a2.165 2.165 0 0 1-.623.478c-.247.125-.548.188-.902.188Z"/>
    <path fill="color(display-p3 .6039 .8039 .7961)" d="M25.828 212.617V216H24.68v-9.16h1.435l1.86 5.567h.088l1.854-5.567h1.44V216h-1.148v-3.383l.108-3.695h-.095l-1.714 4.926h-.978l-1.714-4.926h-.095l.108 3.695Zm9.058 3.497c-1.32 0-2.196-.831-2.196-2.082 0-1.231.889-1.955 2.5-2.05l1.816-.095v-.61c0-.793-.495-1.237-1.383-1.237-.737 0-1.264.317-1.429.863H32.95c.127-1.143 1.212-1.917 2.698-1.917 1.67 0 2.621.838 2.621 2.291v4.729h-1.212v-1.009h-.12c-.33.711-1.073 1.117-2.05 1.117Zm.394-1.06c.99 0 1.726-.654 1.726-1.536v-.73l-1.644.083c-.92.05-1.403.431-1.403 1.104 0 .667.508 1.079 1.32 1.079Zm7.782-2.139v2.107h2.1V216h-4.71v-.978h1.372v-4.963H40.32v-.978h2.736v1.765h.177c.273-1.302 1.08-1.943 2.406-1.943.393 0 .768.051.996.146v1.397a3.627 3.627 0 0 0-1.142-.197c-1.562 0-2.431.971-2.431 2.666Zm6.792-.819 2.83-3.015h1.512l-2.648 2.78L54.38 216h-1.498l-2.254-3.307-.87.85V216H48.49v-9.617h1.27v5.713h.095Zm11.616-3.015V216h-1.232v-1.2h-.088c-.362.851-1.143 1.333-2.178 1.333-1.504 0-2.317-.901-2.317-2.564v-4.488h1.276v4.177c0 1.18.476 1.739 1.498 1.739 1.06 0 1.771-.743 1.771-1.86v-4.056h1.27Zm5.268-.108c1.594 0 2.61 1.136 2.61 2.939v1.263c0 1.803-1.016 2.939-2.61 2.939-1.003 0-1.726-.438-2.006-1.212h-.12v3.421h-1.308v-9.242h1.276v1.098h.12c.324-.787 1.035-1.206 2.038-1.206Zm-.425 1.13c-1.06 0-1.733.749-1.733 1.936v1.035c0 1.193.673 1.942 1.733 1.942 1.066 0 1.746-.755 1.746-1.942v-1.035c0-1.187-.68-1.936-1.746-1.936Z"/>
    <path fill="#fff" d="M25.168 245v-9.16h1.143V245h-1.143Zm3.339 0v-6.843h1.104v1.041h.102a1.82 1.82 0 0 1 .698-.857c.317-.203.7-.304 1.15-.304.308 0 .585.05.83.152.246.102.458.243.635.425.178.178.32.385.426.622h.101a2.202 2.202 0 0 1 1.212-1.047c.276-.102.57-.152.883-.152.465 0 .859.086 1.18.26.326.173.574.427.743.762.17.33.254.734.254 1.212V245h-1.104v-4.475c0-.339-.053-.618-.159-.838a1.023 1.023 0 0 0-.47-.501c-.211-.115-.478-.172-.8-.172a1.57 1.57 0 0 0-.831.216 1.505 1.505 0 0 0-.552.578 1.609 1.609 0 0 0-.197.793V245h-1.105v-4.646c0-.271-.059-.506-.177-.705a1.157 1.157 0 0 0-.495-.47 1.603 1.603 0 0 0-.75-.165c-.296 0-.564.078-.806.235a1.677 1.677 0 0 0-.565.635 1.878 1.878 0 0 0-.203.876V245h-1.104Zm13.19.121c-.431 0-.82-.083-1.168-.248a2.01 2.01 0 0 1-.819-.705 1.934 1.934 0 0 1-.298-1.079v-.012c0-.407.097-.754.292-1.041.195-.292.478-.521.85-.686.373-.165.824-.262 1.353-.292l2.513-.152v.882l-2.38.152c-.52.03-.901.138-1.142.324-.238.186-.356.449-.356.787v.013c0 .347.131.618.393.812.263.191.593.286.99.286.377 0 .712-.074 1.004-.222a1.76 1.76 0 0 0 .685-.616c.17-.258.254-.55.254-.876v-2.133c0-.423-.129-.744-.387-.964-.254-.225-.637-.337-1.149-.337-.41 0-.747.074-1.01.222a1.074 1.074 0 0 0-.526.616l-.006.019h-1.105l.006-.038c.06-.36.208-.673.445-.939.241-.271.552-.481.933-.629.38-.152.814-.228 1.301-.228.559 0 1.03.091 1.416.273.389.182.683.444.882.787.203.338.305.744.305 1.218V245h-1.105v-1.009h-.101c-.144.241-.32.446-.527.615-.203.17-.434.299-.692.388a2.736 2.736 0 0 1-.85.127Zm8.113 2.291c-.55 0-1.03-.078-1.441-.235-.41-.152-.739-.37-.984-.654a1.928 1.928 0 0 1-.45-.977l.012-.006h1.142l.007.006c.059.258.237.47.533.635.296.169.69.254 1.18.254.614 0 1.092-.14 1.435-.419.347-.275.52-.665.52-1.168v-1.384h-.1a2.326 2.326 0 0 1-1.27 1.047 2.79 2.79 0 0 1-.876.134c-.589 0-1.099-.14-1.53-.419a2.795 2.795 0 0 1-.99-1.168c-.233-.496-.35-1.063-.35-1.702v-.012c0-.639.117-1.206.35-1.701.236-.5.57-.891 1.003-1.175.431-.287.945-.431 1.542-.431.322 0 .618.05.889.152.27.102.51.245.717.432.212.186.387.408.527.666h.076v-1.13h1.104v6.748c0 .508-.124.95-.374 1.326-.245.377-.597.667-1.054.87-.457.207-.996.311-1.618.311Zm-.051-3.745c.423 0 .785-.097 1.085-.292.305-.199.538-.472.698-.819a2.75 2.75 0 0 0 .248-1.2v-.012c0-.453-.082-.855-.248-1.206a1.907 1.907 0 0 0-.698-.826c-.3-.198-.662-.298-1.085-.298-.423 0-.783.1-1.08.298a1.914 1.914 0 0 0-.672.826 3.004 3.004 0 0 0-.229 1.206v.012c0 .453.077.853.229 1.2.156.347.38.62.673.819.296.195.656.292 1.079.292Zm7.947 1.454c-.652 0-1.212-.144-1.682-.432a2.858 2.858 0 0 1-1.08-1.219c-.249-.529-.374-1.151-.374-1.866v-.006c0-.707.125-1.327.375-1.86.254-.533.611-.95 1.073-1.251.46-.3 1-.45 1.618-.45.622 0 1.155.144 1.6.431.448.288.791.69 1.028 1.206.241.512.362 1.109.362 1.79v.432h-5.484v-.882h4.919l-.546.806v-.438c0-.538-.08-.98-.241-1.327-.16-.347-.383-.605-.667-.774a1.83 1.83 0 0 0-.977-.26c-.368 0-.698.09-.99.272a1.845 1.845 0 0 0-.686.794c-.17.351-.254.783-.254 1.295v.438c0 .486.083.903.248 1.25.165.343.4.608.704.794.305.182.665.273 1.08.273.308 0 .577-.043.806-.127a1.78 1.78 0 0 0 .565-.324 1.17 1.17 0 0 0 .31-.4l.026-.057h1.105l-.013.051c-.06.233-.165.459-.318.679-.148.216-.34.413-.577.59a2.961 2.961 0 0 1-.845.419 3.583 3.583 0 0 1-1.085.153Z"/>
    <path fill="color(display-p3 .8 .7882 .8627)" d="m162.792 241.922-.092-5.178h1.074l-.091 5.178h-.891Zm.451 2.675a.724.724 0 0 1-.537-.21.724.724 0 0 1-.21-.537.73.73 0 0 1 .21-.542.724.724 0 0 1 .537-.21c.218 0 .395.07.531.21.14.139.21.32.21.542 0 .219-.07.398-.21.537a.707.707 0 0 1-.531.21Zm3.153 1.837v-10.023h2.331v.731h-1.429v8.561h1.429v.731h-2.331Zm5.569-1.832c-.437 0-.804-.082-1.101-.247a1.602 1.602 0 0 1-.671-.73c-.147-.323-.22-.711-.22-1.166v-3.749h.934v3.523c0 .52.1.906.301 1.161.204.254.537.381.999.381.254 0 .478-.038.671-.113.197-.075.362-.183.495-.322.132-.143.231-.315.295-.516.068-.204.102-.433.102-.687v-3.427h.935v5.79h-.935v-.865h-.086a1.61 1.61 0 0 1-.381.527 1.646 1.646 0 0 1-.58.327 2.364 2.364 0 0 1-.758.113Zm4.485-.102v-5.79h.935v.859h.086c.111-.304.299-.54.564-.709.265-.168.592-.252.983-.252.089 0 .177.005.263.016.089.007.157.014.204.022v.907a2.65 2.65 0 0 0-.285-.037 2.38 2.38 0 0 0-.29-.016c-.297 0-.56.059-.789.177-.23.118-.41.283-.543.494a1.392 1.392 0 0 0-.193.741v3.588h-.935Zm4.243 0v-8.089h.935v8.089h-.935Zm4.619 1.934h-2.331v-.731h1.429v-8.561h-1.429v-.731h2.331v10.023Zm4.265 0a7.245 7.245 0 0 1-.859-1.472 7.754 7.754 0 0 1-.505-1.66 10.392 10.392 0 0 1-.161-1.88c0-.666.053-1.29.161-1.874a7.578 7.578 0 0 1 .499-1.66 7.067 7.067 0 0 1 .865-1.477h.784a4.505 4.505 0 0 0-.542.935 8.722 8.722 0 0 0-.43 1.246c-.122.451-.216.92-.285 1.407-.068.483-.102.958-.102 1.423 0 .469.034.947.102 1.434.069.484.163.953.285 1.408.122.451.265.863.43 1.235.168.376.349.688.542.935h-.784Zm3.835-1.832a2.28 2.28 0 0 1-.988-.209 1.707 1.707 0 0 1-.693-.597 1.632 1.632 0 0 1-.252-.913v-.01c0-.344.082-.638.247-.881.164-.247.404-.441.719-.58.315-.14.697-.222 1.144-.247l2.127-.129v.746l-2.014.129c-.44.025-.763.117-.967.274-.2.158-.3.38-.3.666v.011c0 .293.111.523.333.687.222.161.501.242.837.242.319 0 .602-.063.849-.188a1.49 1.49 0 0 0 .58-.521c.143-.218.215-.465.215-.741v-1.805c0-.358-.109-.63-.328-.816-.214-.19-.539-.285-.972-.285-.347 0-.632.063-.854.188a.911.911 0 0 0-.446.521l-.005.016h-.935l.006-.032a1.55 1.55 0 0 1 .376-.795 2.02 2.02 0 0 1 .789-.532c.323-.129.69-.193 1.101-.193.473 0 .872.077 1.198.231.33.154.578.376.747.666.172.286.258.63.258 1.031v3.964h-.935v-.854h-.086a1.958 1.958 0 0 1-1.031.849 2.32 2.32 0 0 1-.72.107Zm4.533-.102v-8.089h.935v8.089h-.935Zm4.786.043c-.594 0-1.026-.12-1.294-.36-.265-.24-.398-.635-.398-1.187v-3.513h-.913v-.773h.913v-1.499h.967v1.499h1.267v.773h-1.267v3.277c0 .34.064.585.193.736.129.146.344.22.645.22.082 0 .152-.002.209-.006.061-.003.135-.009.22-.016v.795a6.167 6.167 0 0 1-.268.038c-.09.011-.181.016-.274.016Zm2.444 1.891h-.784c.193-.247.372-.559.537-.935a8.21 8.21 0 0 0 .435-1.235c.122-.455.216-.924.284-1.408.068-.487.103-.965.103-1.434 0-.465-.035-.94-.103-1.423a11.445 11.445 0 0 0-.284-1.407 8.361 8.361 0 0 0-.435-1.246 4.374 4.374 0 0 0-.537-.935h.784c.351.462.639.954.865 1.477.225.519.392 1.073.499 1.66.107.584.161 1.208.161 1.874 0 .666-.055 1.293-.166 1.88a7.58 7.58 0 0 1-.5 1.66 6.935 6.935 0 0 1-.859 1.472Z"/>
    <path fill="#fff" d="M25.168 270v-9.16h1.143v8.132h4.418V270h-5.561Zm7.274 0v-6.843h1.105V270h-1.105Zm.559-8.163a.749.749 0 0 1-.54-.222.75.75 0 0 1-.222-.54c0-.211.074-.391.222-.539a.75.75 0 0 1 .54-.223c.212 0 .391.075.54.223a.734.734 0 0 1 .222.539.75.75 0 0 1-.222.54.735.735 0 0 1-.54.222ZM35.629 270v-6.843h1.104v1.029h.102a1.94 1.94 0 0 1 .749-.845c.326-.203.74-.304 1.244-.304.77 0 1.36.22 1.771.66.415.436.622 1.06.622 1.872V270h-1.104v-4.164c0-.618-.131-1.075-.394-1.371-.258-.301-.66-.451-1.206-.451-.364 0-.68.078-.946.235a1.608 1.608 0 0 0-.622.667c-.144.287-.216.632-.216 1.034V270H35.63Zm7.655 0v-9.56h1.105V270h-1.105Zm4.31 0-2.672-3.352.812-.704 3.25 4.056h-1.39Zm-3.345-2.463-.05-1.39h.291l2.958-2.99h1.34l-3.25 3.136-.267.26-1.022.984Z"/>
    <path fill="color(display-p3 .8 .7882 .8627)" d="M126.521 271.434v-10.023h2.331v.731h-1.429v8.561h1.429v.731h-2.331Zm5.687-1.891c-.594 0-1.025-.12-1.294-.36-.265-.24-.397-.635-.397-1.187v-3.513h-.913v-.773h.913v-1.499h.966v1.499h1.268v.773h-1.268v3.277c0 .34.065.585.194.736.129.146.344.22.644.22.083 0 .152-.002.21-.006.061-.003.134-.009.22-.016v.795c-.09.015-.179.027-.269.038a2.23 2.23 0 0 1-.274.016Zm4.228.059c-.552 0-1.026-.122-1.424-.365a2.42 2.42 0 0 1-.913-1.031c-.211-.448-.317-.974-.317-1.58v-.005c0-.598.106-1.122.317-1.574a2.53 2.53 0 0 1 .908-1.058c.39-.254.847-.381 1.369-.381.527 0 .978.122 1.354.365.38.244.67.584.87 1.021.204.433.306.938.306 1.514v.366h-4.64v-.747h4.162l-.462.682v-.371c0-.454-.068-.828-.204-1.122a1.435 1.435 0 0 0-.564-.655 1.55 1.55 0 0 0-.827-.221c-.311 0-.591.077-.838.231a1.565 1.565 0 0 0-.58.672c-.143.297-.215.662-.215 1.095v.371c0 .412.07.765.21 1.058.139.29.338.514.596.672.258.154.562.231.913.231.261 0 .489-.036.682-.108.194-.072.353-.163.478-.274a.995.995 0 0 0 .263-.338l.022-.049h.934l-.01.043c-.05.197-.14.389-.269.575a2.138 2.138 0 0 1-.489.5c-.2.146-.438.265-.714.354a3.039 3.039 0 0 1-.918.129Zm3.244-.102 1.982-2.895-2.004-2.895h1.101l1.375 2.154h.086l1.359-2.154h1.047l-1.965 2.857 1.992 2.933h-1.095l-1.37-2.186h-.086l-1.375 2.186h-1.047Zm8.287.043c-.594 0-1.026-.12-1.294-.36-.265-.24-.398-.635-.398-1.187v-3.513h-.913v-.773h.913v-1.499h.967v1.499h1.268v.773h-1.268v3.277c0 .34.065.585.194.736.128.146.343.22.644.22.082 0 .152-.002.21-.006a7.65 7.65 0 0 0 .22-.016v.795c-.09.015-.179.027-.269.038a2.241 2.241 0 0 1-.274.016Zm3.83 1.891h-2.331v-.731h1.429v-8.561h-1.429v-.731h2.331v10.023Zm4.265 0a7.25 7.25 0 0 1-.86-1.472 7.81 7.81 0 0 1-.505-1.66 10.483 10.483 0 0 1-.161-1.88c0-.666.054-1.29.161-1.874a7.58 7.58 0 0 1 .5-1.66 7.024 7.024 0 0 1 .865-1.477h.784a4.505 4.505 0 0 0-.543.935 8.723 8.723 0 0 0-.429 1.246c-.122.451-.217.92-.285 1.407-.068.483-.102.958-.102 1.423 0 .469.034.947.102 1.434.068.484.163.953.285 1.408.121.451.265.863.429 1.235.169.376.349.688.543.935h-.784Zm4.184-1.832c-.437 0-.804-.082-1.101-.247a1.604 1.604 0 0 1-.672-.73c-.147-.323-.22-.711-.22-1.166v-3.749h.935v3.523c0 .52.1.906.3 1.161.204.254.537.381.999.381.255 0 .478-.038.672-.113.197-.075.361-.183.494-.322.132-.143.231-.315.295-.516.068-.204.102-.433.102-.687v-3.427h.935v5.79h-.935v-.865h-.086a1.61 1.61 0 0 1-.381.527 1.637 1.637 0 0 1-.58.327 2.362 2.362 0 0 1-.757.113Zm4.484-.102v-5.79h.935v.859h.086c.111-.304.299-.54.564-.709.265-.168.593-.252.983-.252.089 0 .177.005.263.016.09.007.158.014.204.022v.907a2.618 2.618 0 0 0-.285-.037 2.38 2.38 0 0 0-.29-.016c-.297 0-.56.059-.789.177-.229.118-.41.283-.543.494a1.392 1.392 0 0 0-.193.741v3.588h-.935Zm4.244 0v-8.089h.934v8.089h-.934Zm7.353-7.75-.468 3.056h-1.068l.843-3.056h.693Zm1.783 0-.467 3.056h-1.069l.843-3.056h.693Zm3.792 7.793c-.595 0-1.026-.12-1.295-.36-.265-.24-.397-.635-.397-1.187v-3.513h-.913v-.773h.913v-1.499h.967v1.499h1.267v.773h-1.267v3.277c0 .34.064.585.193.736.129.146.344.22.645.22.082 0 .152-.002.209-.006.061-.003.134-.009.22-.016v.795a6.167 6.167 0 0 1-.268.038c-.09.011-.181.016-.274.016Zm1.96-.043v-5.79h.935v5.79h-.935Zm.473-6.907a.636.636 0 0 1-.457-.188.635.635 0 0 1-.188-.457c0-.179.063-.331.188-.456a.632.632 0 0 1 .457-.188c.179 0 .331.062.457.188a.62.62 0 0 1 .187.456.634.634 0 0 1-.187.457.625.625 0 0 1-.457.188Zm4.281 6.95c-.595 0-1.026-.12-1.295-.36-.265-.24-.397-.635-.397-1.187v-3.513h-.913v-.773h.913v-1.499h.967v1.499h1.267v.773h-1.267v3.277c0 .34.064.585.193.736.129.146.344.22.645.22.082 0 .152-.002.209-.006.061-.003.134-.009.22-.016v.795a6.167 6.167 0 0 1-.268.038c-.09.011-.181.016-.274.016Zm1.992-.043v-8.089h.935v8.089h-.935Zm5.092.102c-.551 0-1.026-.122-1.423-.365a2.42 2.42 0 0 1-.913-1.031c-.211-.448-.317-.974-.317-1.58v-.005c0-.598.106-1.122.317-1.574.215-.451.517-.804.907-1.058.391-.254.847-.381 1.37-.381.526 0 .978.122 1.354.365.379.244.669.584.87 1.021.204.433.306.938.306 1.514v.366h-4.641v-.747h4.163l-.462.682v-.371c0-.454-.068-.828-.204-1.122a1.435 1.435 0 0 0-.564-.655 1.552 1.552 0 0 0-.827-.221 1.55 1.55 0 0 0-.838.231 1.559 1.559 0 0 0-.58.672c-.143.297-.215.662-.215 1.095v.371c0 .412.07.765.209 1.058.14.29.339.514.597.672.257.154.562.231.913.231.261 0 .488-.036.682-.108.193-.072.353-.163.478-.274.125-.111.213-.224.263-.338l.022-.049h.934l-.011.043c-.05.197-.139.389-.268.575a2.158 2.158 0 0 1-.489.5 2.534 2.534 0 0 1-.714.354 3.046 3.046 0 0 1-.919.129Zm3.916-4.796.467-3.056h1.069l-.843 3.056h-.693Zm1.783 0 .467-3.056h1.069l-.843 3.056h-.693Zm3.776 6.628h-.784c.193-.247.372-.559.537-.935a8.21 8.21 0 0 0 .435-1.235c.122-.455.216-.924.284-1.408.068-.487.103-.965.103-1.434 0-.465-.035-.94-.103-1.423a11.445 11.445 0 0 0-.284-1.407 8.361 8.361 0 0 0-.435-1.246 4.374 4.374 0 0 0-.537-.935h.784c.351.462.639.954.865 1.477.225.519.392 1.073.499 1.66.107.584.161 1.208.161 1.874 0 .666-.055 1.293-.166 1.88a7.58 7.58 0 0 1-.5 1.66 6.935 6.935 0 0 1-.859 1.472Z"/>
  </g>
  <g filter="url(#b)">
    <rect width="216" height="40" x="8" y="294" fill="color(display-p3 .1255 .1882 .1961)" fill-opacity=".9" rx="12"/>
    <rect width="217" height="41" x="7.5" y="293.5" stroke="color(display-p3 .2 .302 .3137)" stroke-opacity=".6" rx="12.5"/>
    <path fill="#fff" d="M36.114 319.413a.87.87 0 0 1-.64-.254.845.845 0 0 1-.248-.622c0-.136.027-.259.082-.369.055-.11.125-.205.21-.285l1.422-1.428 2.126-1.841.349.527-2.387.101h-7.046c-.283 0-.514-.084-.691-.254a.91.91 0 0 1-.26-.673c0-.275.086-.497.26-.666.177-.169.408-.254.691-.254h7.046l2.387.102-.35.526-2.125-1.847-1.422-1.422a1.103 1.103 0 0 1-.21-.292.81.81 0 0 1-.082-.368c0-.249.082-.457.247-.622a.87.87 0 0 1 .641-.254c.246 0 .466.095.66.286l4.14 4.132a.888.888 0 0 1 .202.318.904.904 0 0 1 .076.361.974.974 0 0 1-.076.375.845.845 0 0 1-.203.305l-4.139 4.132a.923.923 0 0 1-.66.286Zm5.96 0a.855.855 0 0 1-.628-.254.848.848 0 0 1-.254-.622v-8.43c0-.25.085-.459.254-.628a.842.842 0 0 1 .629-.261.84.84 0 0 1 .628.261c.174.169.26.378.26.628v8.43a.837.837 0 0 1-.26.622.854.854 0 0 1-.628.254Zm27.845 0a.876.876 0 0 1-.635-.254.848.848 0 0 1-.254-.622v-8.43c0-.25.085-.459.254-.628a.862.862 0 0 1 .635-.261c.25 0 .46.087.628.261.174.169.26.378.26.628v8.43a.837.837 0 0 1-.26.622.855.855 0 0 1-.628.254Zm5.96 0a.923.923 0 0 1-.66-.286l-4.138-4.132a.971.971 0 0 1-.28-.68c0-.122.026-.243.076-.361.051-.123.119-.229.204-.318l4.138-4.132a.919.919 0 0 1 .66-.286.85.85 0 0 1 .635.254.83.83 0 0 1 .254.622.808.808 0 0 1-.082.368c-.056.11-.123.208-.204.292l-1.421 1.422-2.127 1.847-.355-.526 2.386-.102h7.046c.284 0 .512.085.686.254.177.169.266.391.266.666s-.088.5-.266.673c-.174.17-.402.254-.686.254h-7.046l-2.386-.101.355-.527 2.127 1.841 1.421 1.428c.08.08.148.175.204.285.055.11.082.233.082.369a.834.834 0 0 1-.254.622.85.85 0 0 1-.635.254ZM116 316.08c-.152 0-.303-.027-.451-.082a4.119 4.119 0 0 1-.507-.254l-4.882-2.825c-.288-.169-.506-.343-.654-.521a.967.967 0 0 1-.222-.641c0-.245.074-.457.222-.634.148-.178.366-.352.654-.521l4.882-2.825c.19-.11.359-.192.507-.247.148-.059.299-.089.451-.089.148 0 .296.03.444.089.153.055.324.137.514.247l4.875 2.825c.292.169.51.343.654.521a.958.958 0 0 1 .222.634c0 .25-.074.464-.222.641-.144.178-.362.352-.654.521l-4.875 2.825c-.19.11-.361.194-.514.254a1.266 1.266 0 0 1-.444.082Zm0 5.453c-.152 0-.303-.03-.451-.089a3.413 3.413 0 0 1-.507-.248l-4.882-2.824c-.288-.17-.506-.343-.654-.521a.96.96 0 0 1-.222-.635.97.97 0 0 1 .222-.641c.148-.178.366-.353.654-.527l1.752-1.003 2.647 1.53c.284.161.538.277.762.349a2.191 2.191 0 0 0 1.352 0 3.94 3.94 0 0 0 .762-.349l2.653-1.53 1.745 1.003c.292.174.51.349.654.527a.97.97 0 0 1 .222.641.96.96 0 0 1-.222.635c-.144.178-.362.351-.654.521l-4.875 2.824c-.19.11-.361.193-.514.248a1.192 1.192 0 0 1-.444.089Z"/>
    <rect width="33" height="33" x="139.5" y="297.5" fill="color(display-p3 .251 .3765 .3922)" stroke="color(display-p3 .3725 .5647 .5843)" rx="8.5"/>
    <path fill="#fff" d="M152.172 320.492c-.723 0-1.278-.193-1.663-.578-.385-.381-.577-.931-.577-1.65v-7.681c0-.719.192-1.27.577-1.65.385-.385.94-.578 1.663-.578h7.656c.723 0 1.278.193 1.663.578.385.38.577.931.577 1.65v7.681c0 .719-.192 1.269-.577 1.65-.385.385-.94.578-1.663.578h-7.656Zm2.203-2.888c.368 0 .59-.182.667-.546l.215-1.06h.883l-.191.939c-.034.19 0 .349.102.476a.554.554 0 0 0 .45.191c.386 0 .614-.187.686-.559l.216-1.054h.457a.607.607 0 0 0 .641-.628.516.516 0 0 0-.146-.381.496.496 0 0 0-.375-.146h-.336l.19-.952h.458a.606.606 0 0 0 .634-.629c0-.16-.048-.29-.146-.387a.469.469 0 0 0-.362-.152h-.355l.171-.857a.532.532 0 0 0-.12-.47.544.544 0 0 0-.445-.203c-.376 0-.598.184-.666.552l-.197.978h-.895l.178-.857a.518.518 0 0 0-.114-.47.545.545 0 0 0-.445-.203c-.376 0-.599.184-.666.552l-.203.978h-.451a.616.616 0 0 0-.457.178.615.615 0 0 0-.178.457c0 .156.047.285.14.387a.5.5 0 0 0 .368.146h.362l-.197.952h-.457a.624.624 0 0 0-.463.178.587.587 0 0 0-.178.444c0 .161.046.29.14.387a.503.503 0 0 0 .374.146h.349l-.197.94a.578.578 0 0 0 .108.482c.106.127.256.191.451.191Zm.997-2.616.247-1.212h1.086l-.242 1.212h-1.091Zm36.946 6.234c-.723 0-1.278-.191-1.663-.572-.385-.38-.577-.933-.577-1.656v-5.878c0-.72.192-1.27.577-1.651.385-.385.94-.577 1.663-.577h2.781v4.481a.87.87 0 0 0 .266.635.895.895 0 0 0 .648.267.875.875 0 0 0 .641-.267.857.857 0 0 0 .273-.635v-4.481h2.748c.724 0 1.278.192 1.663.577.385.385.578.936.578 1.651v5.878c0 .719-.193 1.269-.578 1.65-.385.385-.939.578-1.663.578h-7.357Zm3.695-9.414a.716.716 0 0 1-.527-.216.704.704 0 0 1-.21-.508v-1.98l.064-.933-.33.495-.768.813a.626.626 0 0 1-.483.209.644.644 0 0 1-.444-.171.573.573 0 0 1-.184-.438c0-.165.063-.316.19-.451l2.108-2.019a.895.895 0 0 1 .285-.203.818.818 0 0 1 .299-.057c.097 0 .192.019.285.057a.865.865 0 0 1 .292.203l2.108 2.019a.635.635 0 0 1 .197.451.558.558 0 0 1-.197.438.637.637 0 0 1-.438.171.617.617 0 0 1-.476-.209l-.768-.813-.33-.495.063.933v1.98a.695.695 0 0 1-.216.508.708.708 0 0 1-.52.216Z"/>
  </g>
  <defs>
    <filter id="a" width="234" height="332" x="-1" y="-37" color-interpolation-filters="sRGB" filterUnits="userSpaceOnUse">
      <feFlood flood-opacity="0" result="BackgroundImageFix"/>
      <feGaussianBlur in="BackgroundImageFix" stdDeviation="4"/>
      <feComposite in2="SourceAlpha" operator="in" result="effect1_backgroundBlur_109_9373"/>
      <feBlend in="SourceGraphic" in2="effect1_backgroundBlur_109_9373" result="shape"/>
    </filter>
    <filter id="b" width="234" height="58" x="-1" y="285" color-interpolation-filters="sRGB" filterUnits="userSpaceOnUse">
      <feFlood flood-opacity="0" result="BackgroundImageFix"/>
      <feGaussianBlur in="BackgroundImageFix" stdDeviation="4"/>
      <feComposite in2="SourceAlpha" operator="in" result="effect1_backgroundBlur_109_9373"/>
      <feBlend in="SourceGraphic" in2="effect1_backgroundBlur_109_9373" result="shape"/>
    </filter>
  </defs>
</svg>
